M48
; DRILL file {KiCad 7.0.5} date Mon Jul 10 11:24:49 2023
; FORMAT={-:-/ absolute / inch / decimal}
; #@! TF.CreationDate,2023-07-10T11:24:49-06:00
; #@! TF.GenerationSoftware,Kicad,Pcbnew,7.0.5
; #@! TF.FileFunction,Plated,1,2,PTH
FMAT,2
INCH
; #@! TA.AperFunction,Plated,PTH,ViaDrill
T1C0.0157
; #@! TA.AperFunction,Plated,PTH,ComponentDrill
T2C0.0181
; #@! TA.AperFunction,Plated,PTH,ComponentDrill
T3C0.0197
; #@! TA.AperFunction,Plated,PTH,ComponentDrill
T4C0.0315
; #@! TA.AperFunction,Plated,PTH,ComponentDrill
T5C0.0433
; #@! TA.AperFunction,Plated,PTH,ComponentDrill
T6C0.0512
; #@! TA.AperFunction,Plated,PTH,ComponentDrill
T7C0.1260
%
G90
G05
T1
X3.59Y-3.3
X3.59Y-3.43
X3.59Y-3.55
X3.59Y-3.65
X3.59Y-3.8
X3.59Y-3.95
X3.71Y-3.6062
X3.71Y-3.87
X3.815Y-3.3
X3.815Y-3.55
X3.815Y-3.65
X3.815Y-3.8
X3.815Y-3.95
X3.91Y-3.87
X3.92Y-3.6
X4.04Y-3.3
X4.04Y-3.43
X4.04Y-3.55
X4.04Y-3.65
X4.04Y-3.8
X4.04Y-3.95
X4.14Y-3.37
X4.14Y-3.48
X4.14Y-3.6
X4.14Y-3.7456
X4.145Y-4.3563
X4.24Y-3.3
X4.24Y-3.43
X4.24Y-3.55
X4.24Y-3.65
X4.24Y-3.8
X4.24Y-3.95
X4.27Y-4.3163
X4.36Y-3.6
X4.37Y-3.87
X4.47Y-3.3
X4.47Y-3.55
X4.47Y-3.65
X4.47Y-3.8
X4.47Y-3.95
X4.58Y-3.6
X4.58Y-3.87
X4.69Y-3.3
X4.69Y-3.43
X4.69Y-3.55
X4.69Y-3.65
X4.69Y-3.8
X4.69Y-3.95
X4.82Y-4.0362
X5.015Y-3.77
X5.02Y-4.0365
X5.02Y-4.1365
X5.02Y-4.2365
X5.02Y-4.3865
X5.02Y-4.4865
X5.02Y-4.6115
X5.135Y-3.7963
X5.22Y-4.0365
X5.22Y-4.1365
X5.22Y-4.2365
X5.22Y-4.3865
X5.37Y-4.0365
X5.37Y-4.1365
X5.37Y-4.2365
X5.37Y-4.3865
X5.465Y-3.715
X5.49Y-3.7963
X5.595Y-4.1365
X5.595Y-4.2365
X5.595Y-4.3865
X5.595Y-4.4865
X5.595Y-4.6115
T2
X5.1176Y-3.1482
X5.1226Y-4.4681
X5.4624Y-3.1482
X5.4674Y-4.4681
X6.2911Y-3.1518
X6.2911Y-4.4681
X6.636Y-3.1518
X6.636Y-4.4681
X6.9161Y-3.1518
X6.9161Y-4.471
X7.261Y-3.1518
X7.261Y-4.471
T3
X4.9Y-3.3862
T4
X6.238Y-3.6057
X6.238Y-3.7057
X6.238Y-3.8057
X6.6134Y-3.7178
X6.6134Y-4.0178
X6.7134Y-3.7178
X6.7134Y-4.0178
X6.8134Y-3.7178
X6.8134Y-4.0178
X6.9134Y-3.7178
X6.9134Y-4.0178
X7.313Y-3.6057
X7.313Y-3.7057
X7.313Y-3.8057
T5
X3.7153Y-4.0896
X3.8153Y-4.0896
X3.9153Y-4.0896
X4.37Y-4.0896
X4.47Y-4.0896
X4.57Y-4.0896
T6
X3.245Y-3.1062
X3.245Y-3.3062
X3.245Y-3.5063
X3.245Y-3.7062
X3.245Y-3.9062
X3.245Y-4.1063
X3.245Y-4.3062
X3.245Y-4.5062
T7
X3.69Y-3.1
X3.69Y-4.5
X7.54Y-3.1
X7.54Y-4.5
T0
M30
