%TF.GenerationSoftware,KiCad,Pcbnew,7.0.5*%
%TF.CreationDate,2023-07-10T11:24:46-06:00*%
%TF.ProjectId,S_Tele,535f5465-6c65-42e6-9b69-6361645f7063,rev?*%
%TF.SameCoordinates,Original*%
%TF.FileFunction,Copper,L2,Bot*%
%TF.FilePolarity,Positive*%
%FSLAX46Y46*%
G04 Gerber Fmt 4.6, Leading zero omitted, Abs format (unit mm)*
G04 Created by KiCad (PCBNEW 7.0.5) date 2023-07-10 11:24:46*
%MOMM*%
%LPD*%
G01*
G04 APERTURE LIST*
%TA.AperFunction,SMDPad,CuDef*%
%ADD10R,2.420000X5.080000*%
%TD*%
%TA.AperFunction,SMDPad,CuDef*%
%ADD11R,0.460000X0.950000*%
%TD*%
%TA.AperFunction,ComponentPad*%
%ADD12C,0.970000*%
%TD*%
%TA.AperFunction,ComponentPad*%
%ADD13C,5.500000*%
%TD*%
%TA.AperFunction,ComponentPad*%
%ADD14R,0.850000X0.850000*%
%TD*%
%TA.AperFunction,ComponentPad*%
%ADD15R,1.905000X2.000000*%
%TD*%
%TA.AperFunction,ComponentPad*%
%ADD16O,1.905000X2.000000*%
%TD*%
%TA.AperFunction,ComponentPad*%
%ADD17R,1.600000X1.600000*%
%TD*%
%TA.AperFunction,ComponentPad*%
%ADD18O,1.600000X1.600000*%
%TD*%
%TA.AperFunction,ComponentPad*%
%ADD19C,1.440000*%
%TD*%
%TA.AperFunction,ComponentPad*%
%ADD20R,2.600000X2.600000*%
%TD*%
%TA.AperFunction,ComponentPad*%
%ADD21C,2.600000*%
%TD*%
%TA.AperFunction,ViaPad*%
%ADD22C,0.800000*%
%TD*%
%TA.AperFunction,Conductor*%
%ADD23C,0.250000*%
%TD*%
%TA.AperFunction,Conductor*%
%ADD24C,0.800000*%
%TD*%
G04 APERTURE END LIST*
D10*
%TO.P,J5,2,Ext*%
%TO.N,GND*%
X168553200Y-76615850D03*
X159793200Y-76615850D03*
D11*
X168553200Y-79605850D03*
X159793200Y-79605850D03*
D12*
X168553200Y-80055850D03*
X159793200Y-80055850D03*
%TD*%
D13*
%TO.P,REF\u002A\u002A,1*%
%TO.N,N/C*%
X93726000Y-78740000D03*
%TD*%
D10*
%TO.P,J3,2,Ext*%
%TO.N,GND*%
X130113000Y-116929250D03*
X138873000Y-116929250D03*
D11*
X130113000Y-113939250D03*
X138873000Y-113939250D03*
D12*
X130113000Y-113489250D03*
X138873000Y-113489250D03*
%TD*%
D10*
%TO.P,J4,2,Ext*%
%TO.N,GND*%
X138746000Y-76523500D03*
X129986000Y-76523500D03*
D11*
X138746000Y-79513500D03*
X129986000Y-79513500D03*
D12*
X138746000Y-79963500D03*
X129986000Y-79963500D03*
%TD*%
D14*
%TO.P,J2,1,Pin_1*%
%TO.N,TEMP*%
X124460000Y-86010750D03*
%TD*%
D13*
%TO.P,REF\u002A\u002A,1*%
%TO.N,N/C*%
X191516000Y-78740000D03*
%TD*%
D15*
%TO.P,U1,1,IN*%
%TO.N,Vin*%
X94368000Y-103876750D03*
D16*
%TO.P,U1,2,GND*%
%TO.N,GND*%
X96908000Y-103876750D03*
%TO.P,U1,3,OUT*%
%TO.N,+15VDC*%
X99448000Y-103876750D03*
%TD*%
D13*
%TO.P,REF\u002A\u002A,1*%
%TO.N,N/C*%
X93726000Y-114300000D03*
%TD*%
%TO.P,REF\u002A\u002A,1*%
%TO.N,N/C*%
X191516000Y-114300000D03*
%TD*%
D15*
%TO.P,U2,1,IN*%
%TO.N,+15VDC*%
X110998000Y-103876750D03*
D16*
%TO.P,U2,2,GND*%
%TO.N,GND*%
X113538000Y-103876750D03*
%TO.P,U2,3,OUT*%
%TO.N,+5VDC*%
X116078000Y-103876750D03*
%TD*%
D10*
%TO.P,J6,2,Ext*%
%TO.N,GND*%
X159793400Y-116929400D03*
X168553400Y-116929400D03*
D11*
X159793400Y-113939400D03*
X168553400Y-113939400D03*
D12*
X159793400Y-113489400D03*
X168553400Y-113489400D03*
%TD*%
D17*
%TO.P,U4,1*%
%TO.N,Net-(J6-In)*%
X167979200Y-102053350D03*
D18*
%TO.P,U4,2,-*%
%TO.N,GND*%
X170519200Y-102053350D03*
%TO.P,U4,3,+*%
%TO.N,Net-(U4A-+)*%
X173059200Y-102053350D03*
%TO.P,U4,4,V-*%
%TO.N,GND*%
X175599200Y-102053350D03*
%TO.P,U4,5,+*%
%TO.N,Net-(U4B-+)*%
X175599200Y-94433350D03*
%TO.P,U4,6,-*%
%TO.N,GND*%
X173059200Y-94433350D03*
%TO.P,U4,7*%
%TO.N,Net-(J8-In)*%
X170519200Y-94433350D03*
%TO.P,U4,8,V+*%
%TO.N,+15VDC*%
X167979200Y-94433350D03*
%TD*%
D19*
%TO.P,R_pot2,1,1*%
%TO.N,Net-(J7-In)*%
X185749200Y-91585850D03*
%TO.P,R_pot2,2,2*%
%TO.N,Net-(U4B-+)*%
X185749200Y-94125850D03*
%TO.P,R_pot2,3,3*%
%TO.N,unconnected-(R_pot2-Pad3)*%
X185749200Y-96665850D03*
%TD*%
D10*
%TO.P,J8,2,Ext*%
%TO.N,GND*%
X175668400Y-117004400D03*
X184428400Y-117004400D03*
D11*
X175668400Y-114014400D03*
X184428400Y-114014400D03*
D12*
X175668400Y-113564400D03*
X184428400Y-113564400D03*
%TD*%
D20*
%TO.P,J1,1,Pin_1*%
%TO.N,GND*%
X82423000Y-78898750D03*
D21*
%TO.P,J1,2,Pin_2*%
X82423000Y-83978750D03*
%TO.P,J1,3,Pin_3*%
X82423000Y-89058750D03*
%TO.P,J1,4,Pin_4*%
%TO.N,+5VDC*%
X82423000Y-94138750D03*
%TO.P,J1,5,Pin_5*%
X82423000Y-99218750D03*
%TO.P,J1,6,Pin_6*%
%TO.N,+15VDC*%
X82423000Y-104298750D03*
%TO.P,J1,7,Pin_7*%
X82423000Y-109378750D03*
%TO.P,J1,8,Pin_8*%
%TO.N,Vin*%
X82423000Y-114458750D03*
%TD*%
D10*
%TO.P,J7,2,Ext*%
%TO.N,GND*%
X184428200Y-76615850D03*
X175668200Y-76615850D03*
D11*
X184428200Y-79605850D03*
X175668200Y-79605850D03*
D12*
X184428200Y-80055850D03*
X175668200Y-80055850D03*
%TD*%
D19*
%TO.P,R_pot1,1,1*%
%TO.N,Net-(J5-In)*%
X158444200Y-91585850D03*
%TO.P,R_pot1,2,2*%
%TO.N,Net-(U4A-+)*%
X158444200Y-94125850D03*
%TO.P,R_pot1,3,3*%
%TO.N,unconnected-(R_pot1-Pad3)*%
X158444200Y-96665850D03*
%TD*%
D22*
%TO.N,GND*%
X105156000Y-85598000D03*
X107696000Y-92710000D03*
X142113000Y-111416750D03*
X132588000Y-111416750D03*
X91186000Y-100330000D03*
X116332000Y-98298000D03*
X136398000Y-111416750D03*
X113538000Y-96520000D03*
X102616000Y-87122000D03*
X127508000Y-113956750D03*
X91186000Y-90170000D03*
X113538000Y-100330000D03*
X119126000Y-96520000D03*
X136398000Y-105066750D03*
X96901000Y-90170000D03*
X96901000Y-83820000D03*
X96901000Y-96520000D03*
X99314000Y-98298000D03*
X91186000Y-92710000D03*
X142113000Y-113956750D03*
X99568000Y-91440000D03*
X132588000Y-107606750D03*
X113538000Y-83820000D03*
X102616000Y-90170000D03*
X113538000Y-92710000D03*
X127508000Y-102526750D03*
X132588000Y-105066750D03*
X102616000Y-100330000D03*
X102616000Y-96520000D03*
X110998000Y-98298000D03*
X94234000Y-98298000D03*
X91186000Y-87122000D03*
X119126000Y-92710000D03*
X94234000Y-91598750D03*
X107696000Y-87122000D03*
X142113000Y-117131750D03*
X119126000Y-90170000D03*
X142113000Y-105066750D03*
X96901000Y-92710000D03*
X136398000Y-107606750D03*
X107696000Y-83820000D03*
X110744000Y-91440000D03*
X142113000Y-107606750D03*
X119126000Y-87122000D03*
X119126000Y-100330000D03*
X116332000Y-91440000D03*
X107696000Y-96520000D03*
X102616000Y-83820000D03*
X105156000Y-88392000D03*
X107696000Y-100330000D03*
X136398000Y-102526750D03*
X113538000Y-90170000D03*
X119126000Y-83820000D03*
X96901000Y-100330000D03*
X132588000Y-102526750D03*
X127508000Y-111416750D03*
X127508000Y-105066750D03*
X105283000Y-110648750D03*
X91186000Y-83820000D03*
X127508000Y-117131750D03*
X105156000Y-95138250D03*
X105156000Y-91440000D03*
X127508000Y-107606750D03*
X102616000Y-92710000D03*
X91186000Y-96520000D03*
X107696000Y-90170000D03*
%TO.N,+15VDC*%
X122428000Y-102520750D03*
X108458000Y-109632750D03*
%TO.N,+5VDC*%
X139446000Y-96424750D03*
X130429000Y-96424750D03*
%TO.N,VREF*%
X138811000Y-94361000D03*
X127381000Y-95758000D03*
%TD*%
D23*
%TO.N,GND*%
X159700850Y-79963500D02*
X159793200Y-80055850D01*
D24*
X105283000Y-110648750D02*
X108856214Y-110648750D01*
D23*
X159793200Y-80055850D02*
X168553200Y-80055850D01*
X142580500Y-113489250D02*
X159793250Y-113489250D01*
X159793250Y-113489250D02*
X159793400Y-113489400D01*
X170519200Y-108415200D02*
X175668400Y-113564400D01*
X138873000Y-113489250D02*
X141645500Y-113489250D01*
D24*
X108856214Y-110648750D02*
X113538000Y-105966964D01*
D23*
X168529200Y-89903350D02*
X173059200Y-94433350D01*
X168553400Y-113489400D02*
X168553400Y-104852200D01*
X170519200Y-102053350D02*
X170519200Y-108415200D01*
X175644200Y-91848350D02*
X173059200Y-94433350D01*
X168553400Y-113489400D02*
X159793400Y-113489400D01*
D24*
X96908000Y-103876750D02*
X96908000Y-103924250D01*
D23*
X142113000Y-113956750D02*
X142580500Y-113489250D01*
X184435600Y-113571600D02*
X184428400Y-113564400D01*
X170519200Y-102886400D02*
X170519200Y-102053350D01*
X175668400Y-113564400D02*
X168628400Y-113564400D01*
D24*
X103632500Y-110648750D02*
X105283000Y-110648750D01*
D23*
X168553200Y-80055850D02*
X175668200Y-80055850D01*
X170519200Y-102053350D02*
X171644200Y-103178350D01*
X141645500Y-113489250D02*
X142113000Y-113956750D01*
X168529200Y-80055850D02*
X168529200Y-89903350D01*
X175644200Y-80055850D02*
X175644200Y-91848350D01*
X129986000Y-79963500D02*
X138746000Y-79963500D01*
X168553400Y-104852200D02*
X170519200Y-102886400D01*
D24*
X96908000Y-103924250D02*
X103632500Y-110648750D01*
D23*
X159793400Y-112779150D02*
X159793400Y-113489400D01*
D24*
X113538000Y-105966964D02*
X113538000Y-103876750D01*
D23*
X174474200Y-103178350D02*
X175599200Y-102053350D01*
X168628400Y-113564400D02*
X168553400Y-113489400D01*
X130113000Y-113489250D02*
X138873000Y-113489250D01*
X138746000Y-79963500D02*
X159700850Y-79963500D01*
X171644200Y-103178350D02*
X174474200Y-103178350D01*
X184428200Y-80055850D02*
X175668200Y-80055850D01*
X170519200Y-102053350D02*
X159793400Y-112779150D01*
X184428400Y-113564400D02*
X175668400Y-113564400D01*
D24*
%TO.N,+15VDC*%
X142421314Y-97985850D02*
X139860214Y-95424750D01*
X110998000Y-103876750D02*
X101876500Y-103876750D01*
X82423000Y-109378750D02*
X89525000Y-102276750D01*
X122428000Y-102520750D02*
X129524000Y-95424750D01*
X82423000Y-104298750D02*
X87503000Y-104298750D01*
X101876500Y-103876750D02*
X107632500Y-109632750D01*
X139860214Y-95424750D02*
X129524000Y-95424750D01*
X89525000Y-102276750D02*
X97848000Y-102276750D01*
D23*
X87503000Y-104298750D02*
X89525000Y-102276750D01*
D24*
X99448000Y-103876750D02*
X101876500Y-103876750D01*
X164426700Y-97985850D02*
X142421314Y-97985850D01*
X97848000Y-102276750D02*
X99448000Y-103876750D01*
X167979200Y-94433350D02*
X164426700Y-97985850D01*
X107632500Y-109632750D02*
X108458000Y-109632750D01*
%TO.N,+5VDC*%
X114808000Y-102606750D02*
X114808000Y-95504000D01*
X114808000Y-95504000D02*
X113442750Y-94138750D01*
X130429000Y-96424750D02*
X139446000Y-96424750D01*
X122977000Y-103876750D02*
X116078000Y-103876750D01*
X82423000Y-99218750D02*
X87503000Y-94138750D01*
X114808000Y-102606750D02*
X116078000Y-103876750D01*
X122977000Y-103876750D02*
X130429000Y-96424750D01*
X113442750Y-94138750D02*
X87630000Y-94138750D01*
X82423000Y-94138750D02*
X87630000Y-94138750D01*
X87503000Y-94138750D02*
X87630000Y-94138750D01*
D23*
%TO.N,VREF*%
X127381000Y-95758000D02*
X128778000Y-94361000D01*
X128778000Y-94361000D02*
X138811000Y-94361000D01*
%TD*%
%TA.AperFunction,Conductor*%
%TO.N,GND*%
G36*
X143199039Y-99079685D02*
G01*
X143244794Y-99132489D01*
X143256000Y-99184000D01*
X143256000Y-117986000D01*
X143236315Y-118053039D01*
X143183511Y-118098794D01*
X143132000Y-118110000D01*
X126870000Y-118110000D01*
X126802961Y-118090315D01*
X126757206Y-118037511D01*
X126746000Y-117986000D01*
X126746000Y-101264319D01*
X126765685Y-101197280D01*
X126782319Y-101176638D01*
X128862639Y-99096319D01*
X128923962Y-99062834D01*
X128950320Y-99060000D01*
X143132000Y-99060000D01*
X143199039Y-99079685D01*
G37*
%TD.AperFunction*%
%TD*%
%TA.AperFunction,Conductor*%
%TO.N,GND*%
G36*
X113085428Y-95058935D02*
G01*
X113106070Y-95075569D01*
X113871181Y-95840679D01*
X113904666Y-95902002D01*
X113907500Y-95928360D01*
X113907500Y-101476000D01*
X113887815Y-101543039D01*
X113835011Y-101588794D01*
X113783500Y-101600000D01*
X98489769Y-101600000D01*
X98422730Y-101580315D01*
X98406798Y-101568151D01*
X98380220Y-101544220D01*
X98380213Y-101544215D01*
X98368070Y-101537204D01*
X98352043Y-101526188D01*
X98341153Y-101517370D01*
X98341151Y-101517369D01*
X98341149Y-101517367D01*
X98322259Y-101507742D01*
X98279266Y-101485835D01*
X98276414Y-101484287D01*
X98216282Y-101449570D01*
X98202949Y-101445238D01*
X98184978Y-101437793D01*
X98172498Y-101431434D01*
X98172486Y-101431429D01*
X98105409Y-101413455D01*
X98102309Y-101412537D01*
X98036256Y-101391076D01*
X98036251Y-101391075D01*
X98036249Y-101391075D01*
X98022314Y-101389610D01*
X98003189Y-101386065D01*
X97989653Y-101382438D01*
X97989643Y-101382436D01*
X97920290Y-101378801D01*
X97917059Y-101378547D01*
X97902537Y-101377021D01*
X97895192Y-101376250D01*
X97895189Y-101376250D01*
X97873203Y-101376250D01*
X97869959Y-101376165D01*
X97800612Y-101372531D01*
X97800611Y-101372531D01*
X97786772Y-101374723D01*
X97767373Y-101376250D01*
X90040000Y-101376250D01*
X89972961Y-101356565D01*
X89927206Y-101303761D01*
X89916000Y-101252250D01*
X89916000Y-95163250D01*
X89935685Y-95096211D01*
X89988489Y-95050456D01*
X90040000Y-95039250D01*
X113018389Y-95039250D01*
X113085428Y-95058935D01*
G37*
%TD.AperFunction*%
%TA.AperFunction,Conductor*%
G36*
X120339039Y-82569685D02*
G01*
X120384794Y-82622489D01*
X120396000Y-82674000D01*
X120396000Y-101476000D01*
X120376315Y-101543039D01*
X120323511Y-101588794D01*
X120272000Y-101600000D01*
X115832500Y-101600000D01*
X115765461Y-101580315D01*
X115719706Y-101527511D01*
X115708500Y-101476000D01*
X115708500Y-95584626D01*
X115710027Y-95565225D01*
X115712219Y-95551388D01*
X115708584Y-95482040D01*
X115708500Y-95478797D01*
X115708500Y-95456809D01*
X115708499Y-95456800D01*
X115706201Y-95434936D01*
X115705947Y-95431720D01*
X115702313Y-95362354D01*
X115698684Y-95348812D01*
X115695138Y-95329684D01*
X115693674Y-95315744D01*
X115672218Y-95249708D01*
X115671296Y-95246596D01*
X115653321Y-95179517D01*
X115653320Y-95179512D01*
X115646956Y-95167022D01*
X115639511Y-95149050D01*
X115635179Y-95135716D01*
X115635177Y-95135712D01*
X115635175Y-95135707D01*
X115611670Y-95094998D01*
X115600443Y-95075552D01*
X115598920Y-95072747D01*
X115567383Y-95010851D01*
X115567382Y-95010849D01*
X115558560Y-94999955D01*
X115547538Y-94983918D01*
X115540532Y-94971783D01*
X115540531Y-94971781D01*
X115494060Y-94920170D01*
X115491952Y-94917702D01*
X115478118Y-94900619D01*
X115462577Y-94885078D01*
X115460341Y-94882722D01*
X115413872Y-94831113D01*
X115413871Y-94831112D01*
X115402525Y-94822869D01*
X115387734Y-94810235D01*
X114136514Y-93559015D01*
X114123876Y-93544218D01*
X114115637Y-93532878D01*
X114064027Y-93486407D01*
X114061672Y-93484173D01*
X114046132Y-93468632D01*
X114029045Y-93454793D01*
X114026581Y-93452689D01*
X113974970Y-93406220D01*
X113974963Y-93406215D01*
X113962820Y-93399204D01*
X113946793Y-93388188D01*
X113935903Y-93379370D01*
X113935901Y-93379369D01*
X113935899Y-93379367D01*
X113917009Y-93369742D01*
X113874016Y-93347835D01*
X113871164Y-93346287D01*
X113811032Y-93311570D01*
X113797699Y-93307238D01*
X113779728Y-93299793D01*
X113767248Y-93293434D01*
X113767236Y-93293429D01*
X113700159Y-93275455D01*
X113697059Y-93274537D01*
X113631006Y-93253076D01*
X113631001Y-93253075D01*
X113630999Y-93253075D01*
X113617064Y-93251610D01*
X113597939Y-93248065D01*
X113584403Y-93244438D01*
X113584393Y-93244436D01*
X113515040Y-93240801D01*
X113511809Y-93240547D01*
X113497287Y-93239021D01*
X113489942Y-93238250D01*
X113489939Y-93238250D01*
X113467953Y-93238250D01*
X113464709Y-93238165D01*
X113395362Y-93234531D01*
X113395361Y-93234531D01*
X113381522Y-93236723D01*
X113362123Y-93238250D01*
X90040000Y-93238250D01*
X89972961Y-93218565D01*
X89927206Y-93165761D01*
X89916000Y-93114250D01*
X89916000Y-87216750D01*
X94652671Y-87216750D01*
X94654835Y-87249777D01*
X94654933Y-87255905D01*
X94653723Y-87292117D01*
X94653723Y-87292127D01*
X94664772Y-87401960D01*
X94664951Y-87404110D01*
X94671965Y-87511126D01*
X94671966Y-87511139D01*
X94679050Y-87546753D01*
X94679930Y-87552641D01*
X94683882Y-87591914D01*
X94708727Y-87696171D01*
X94709225Y-87698448D01*
X94729516Y-87800461D01*
X94729518Y-87800469D01*
X94742230Y-87837921D01*
X94743831Y-87843477D01*
X94753729Y-87885005D01*
X94753730Y-87885008D01*
X94753731Y-87885011D01*
X94764410Y-87912739D01*
X94791094Y-87982023D01*
X94791940Y-87984359D01*
X94824348Y-88079827D01*
X94836294Y-88104051D01*
X94843263Y-88118183D01*
X94845515Y-88123323D01*
X94862019Y-88166178D01*
X94862023Y-88166186D01*
X94892486Y-88221773D01*
X94910441Y-88254539D01*
X94911665Y-88256891D01*
X94954822Y-88344405D01*
X94954833Y-88344423D01*
X94980380Y-88382657D01*
X94983199Y-88387307D01*
X95006822Y-88430409D01*
X95006829Y-88430421D01*
X95064671Y-88508925D01*
X95066308Y-88511257D01*
X95107366Y-88572705D01*
X95118727Y-88589707D01*
X95151182Y-88626715D01*
X95154482Y-88630818D01*
X95185551Y-88672985D01*
X95251114Y-88740778D01*
X95253160Y-88742999D01*
X95313242Y-88811508D01*
X95348025Y-88842012D01*
X95352670Y-88846086D01*
X95356358Y-88849599D01*
X95395018Y-88889572D01*
X95395020Y-88889574D01*
X95404934Y-88897403D01*
X95466495Y-88946017D01*
X95468950Y-88948061D01*
X95535040Y-89006020D01*
X95535040Y-89006021D01*
X95581336Y-89036955D01*
X95585307Y-89039842D01*
X95631484Y-89076307D01*
X95631485Y-89076308D01*
X95707059Y-89121070D01*
X95709897Y-89122856D01*
X95761622Y-89157418D01*
X95780338Y-89169924D01*
X95797190Y-89178234D01*
X95833187Y-89195986D01*
X95837318Y-89198223D01*
X95871458Y-89218444D01*
X95890717Y-89229852D01*
X95890722Y-89229854D01*
X95890730Y-89229859D01*
X95968665Y-89262906D01*
X95971826Y-89264354D01*
X96044923Y-89300402D01*
X96103759Y-89320374D01*
X96108014Y-89321995D01*
X96168128Y-89347486D01*
X96246640Y-89368992D01*
X96250160Y-89370070D01*
X96324278Y-89395231D01*
X96382967Y-89406904D01*
X96388384Y-89407982D01*
X96392658Y-89408991D01*
X96458729Y-89427090D01*
X96536224Y-89437511D01*
X96540037Y-89438147D01*
X96613620Y-89452784D01*
X96682067Y-89457269D01*
X96686246Y-89457687D01*
X96757347Y-89467250D01*
X96832302Y-89467250D01*
X96836349Y-89467382D01*
X96868372Y-89469481D01*
X96907994Y-89472079D01*
X96908000Y-89472079D01*
X96908004Y-89472079D01*
X96917771Y-89471438D01*
X96979141Y-89467416D01*
X96981032Y-89467323D01*
X96983218Y-89467250D01*
X96983244Y-89467250D01*
X97056670Y-89462334D01*
X97056845Y-89462373D01*
X97056842Y-89462324D01*
X97149347Y-89456259D01*
X97202380Y-89452784D01*
X97202411Y-89452777D01*
X97203522Y-89452632D01*
X97207478Y-89452239D01*
X97208634Y-89452162D01*
X97351658Y-89423091D01*
X97491722Y-89395231D01*
X97492442Y-89394986D01*
X97500018Y-89392935D01*
X97503903Y-89392146D01*
X97638821Y-89345297D01*
X97771077Y-89300402D01*
X97774687Y-89298621D01*
X97781754Y-89295664D01*
X97788537Y-89293310D01*
X97913220Y-89230304D01*
X98035665Y-89169922D01*
X98041700Y-89165888D01*
X98048164Y-89162114D01*
X98057459Y-89157418D01*
X98170040Y-89080135D01*
X98280957Y-89006023D01*
X98288840Y-88999108D01*
X98294622Y-88994613D01*
X98305869Y-88986894D01*
X98404824Y-88897393D01*
X98502758Y-88811508D01*
X98511799Y-88801196D01*
X98516823Y-88796095D01*
X98529333Y-88784782D01*
X98613443Y-88685295D01*
X98697273Y-88589707D01*
X98706687Y-88575616D01*
X98710895Y-88570029D01*
X98723863Y-88554691D01*
X98723865Y-88554689D01*
X98791941Y-88448048D01*
X98792592Y-88447051D01*
X98861172Y-88344415D01*
X98870098Y-88326312D01*
X98873441Y-88320381D01*
X98885993Y-88300720D01*
X98937920Y-88188817D01*
X98938527Y-88187552D01*
X98991649Y-88079834D01*
X98991652Y-88079827D01*
X98991652Y-88079826D01*
X98999179Y-88057649D01*
X99001641Y-88051502D01*
X99012823Y-88027408D01*
X99048417Y-87912659D01*
X99048858Y-87911301D01*
X99086481Y-87800472D01*
X99091677Y-87774347D01*
X99093271Y-87768066D01*
X99102093Y-87739629D01*
X99121534Y-87624373D01*
X99121847Y-87622671D01*
X99144034Y-87511130D01*
X99145986Y-87481326D01*
X99146714Y-87475092D01*
X99152209Y-87442520D01*
X99156006Y-87328919D01*
X99156104Y-87326968D01*
X99163329Y-87216755D01*
X99163329Y-87216751D01*
X99163329Y-87216750D01*
X111282671Y-87216750D01*
X111284835Y-87249777D01*
X111284933Y-87255905D01*
X111283723Y-87292117D01*
X111283723Y-87292127D01*
X111294772Y-87401960D01*
X111294951Y-87404110D01*
X111301965Y-87511126D01*
X111301966Y-87511139D01*
X111309050Y-87546753D01*
X111309930Y-87552641D01*
X111313882Y-87591914D01*
X111338727Y-87696171D01*
X111339225Y-87698448D01*
X111359516Y-87800461D01*
X111359518Y-87800469D01*
X111372230Y-87837921D01*
X111373831Y-87843477D01*
X111383729Y-87885005D01*
X111383730Y-87885008D01*
X111383731Y-87885011D01*
X111394410Y-87912739D01*
X111421094Y-87982023D01*
X111421940Y-87984359D01*
X111454348Y-88079827D01*
X111466294Y-88104051D01*
X111473263Y-88118183D01*
X111475515Y-88123323D01*
X111492019Y-88166178D01*
X111492023Y-88166186D01*
X111522486Y-88221773D01*
X111540441Y-88254539D01*
X111541665Y-88256891D01*
X111584822Y-88344405D01*
X111584833Y-88344423D01*
X111610380Y-88382657D01*
X111613199Y-88387307D01*
X111636822Y-88430409D01*
X111636829Y-88430421D01*
X111694671Y-88508925D01*
X111696308Y-88511257D01*
X111737366Y-88572705D01*
X111748727Y-88589707D01*
X111781182Y-88626715D01*
X111784482Y-88630818D01*
X111815551Y-88672985D01*
X111881114Y-88740778D01*
X111883160Y-88742999D01*
X111943242Y-88811508D01*
X111978025Y-88842012D01*
X111982670Y-88846086D01*
X111986358Y-88849599D01*
X112025018Y-88889572D01*
X112025020Y-88889574D01*
X112034934Y-88897403D01*
X112096495Y-88946017D01*
X112098950Y-88948061D01*
X112165040Y-89006020D01*
X112165040Y-89006021D01*
X112211336Y-89036955D01*
X112215307Y-89039842D01*
X112261485Y-89076308D01*
X112337059Y-89121070D01*
X112339897Y-89122856D01*
X112391622Y-89157418D01*
X112410338Y-89169924D01*
X112427190Y-89178234D01*
X112463187Y-89195986D01*
X112467318Y-89198223D01*
X112501458Y-89218444D01*
X112520717Y-89229852D01*
X112520722Y-89229854D01*
X112520730Y-89229859D01*
X112598665Y-89262906D01*
X112601826Y-89264354D01*
X112674923Y-89300402D01*
X112733759Y-89320374D01*
X112738014Y-89321995D01*
X112798128Y-89347486D01*
X112876640Y-89368992D01*
X112880160Y-89370070D01*
X112954278Y-89395231D01*
X113012967Y-89406904D01*
X113018384Y-89407982D01*
X113022658Y-89408991D01*
X113088729Y-89427090D01*
X113166224Y-89437511D01*
X113170037Y-89438147D01*
X113243620Y-89452784D01*
X113312067Y-89457269D01*
X113316246Y-89457687D01*
X113387347Y-89467250D01*
X113462302Y-89467250D01*
X113466349Y-89467382D01*
X113498372Y-89469481D01*
X113537994Y-89472079D01*
X113538000Y-89472079D01*
X113538004Y-89472079D01*
X113547771Y-89471438D01*
X113609141Y-89467416D01*
X113611032Y-89467323D01*
X113613218Y-89467250D01*
X113613244Y-89467250D01*
X113686670Y-89462334D01*
X113686845Y-89462373D01*
X113686842Y-89462324D01*
X113779347Y-89456259D01*
X113832380Y-89452784D01*
X113832411Y-89452777D01*
X113833522Y-89452632D01*
X113837478Y-89452239D01*
X113838634Y-89452162D01*
X113981658Y-89423091D01*
X114121722Y-89395231D01*
X114122442Y-89394986D01*
X114130018Y-89392935D01*
X114133903Y-89392146D01*
X114268821Y-89345297D01*
X114401077Y-89300402D01*
X114404687Y-89298621D01*
X114411754Y-89295664D01*
X114418537Y-89293310D01*
X114543220Y-89230304D01*
X114665665Y-89169922D01*
X114671700Y-89165888D01*
X114678164Y-89162114D01*
X114687459Y-89157418D01*
X114800040Y-89080135D01*
X114910957Y-89006023D01*
X114918840Y-88999108D01*
X114924622Y-88994613D01*
X114935869Y-88986894D01*
X115034824Y-88897393D01*
X115132758Y-88811508D01*
X115141799Y-88801196D01*
X115146823Y-88796095D01*
X115159333Y-88784782D01*
X115243443Y-88685295D01*
X115327273Y-88589707D01*
X115336687Y-88575616D01*
X115340895Y-88570029D01*
X115353863Y-88554691D01*
X115353865Y-88554689D01*
X115421941Y-88448048D01*
X115422592Y-88447051D01*
X115491172Y-88344415D01*
X115500098Y-88326312D01*
X115503441Y-88320381D01*
X115515993Y-88300720D01*
X115567920Y-88188817D01*
X115568527Y-88187552D01*
X115621649Y-88079834D01*
X115621652Y-88079827D01*
X115621652Y-88079826D01*
X115629179Y-88057649D01*
X115631641Y-88051502D01*
X115642823Y-88027408D01*
X115678417Y-87912659D01*
X115678858Y-87911301D01*
X115716481Y-87800472D01*
X115721677Y-87774347D01*
X115723271Y-87768066D01*
X115732093Y-87739629D01*
X115751534Y-87624373D01*
X115751847Y-87622671D01*
X115774034Y-87511130D01*
X115775986Y-87481326D01*
X115776714Y-87475092D01*
X115782209Y-87442520D01*
X115786006Y-87328919D01*
X115786104Y-87326968D01*
X115793329Y-87216755D01*
X115793329Y-87216751D01*
X115793329Y-87216750D01*
X115791162Y-87183705D01*
X115791065Y-87177599D01*
X115792277Y-87141381D01*
X115781228Y-87031558D01*
X115781050Y-87029411D01*
X115774035Y-86922382D01*
X115774034Y-86922373D01*
X115774034Y-86922370D01*
X115766944Y-86886727D01*
X115766068Y-86880857D01*
X115762118Y-86841591D01*
X115762118Y-86841588D01*
X115737265Y-86737305D01*
X115736777Y-86735069D01*
X115716481Y-86633028D01*
X115703764Y-86595566D01*
X115702169Y-86590033D01*
X115692269Y-86548489D01*
X115654899Y-86451459D01*
X115654057Y-86449135D01*
X115639447Y-86406095D01*
X115621652Y-86353673D01*
X115602732Y-86315306D01*
X115600485Y-86310179D01*
X115583977Y-86267316D01*
X115535555Y-86178957D01*
X115534334Y-86176612D01*
X115501604Y-86110240D01*
X115491175Y-86089091D01*
X115491172Y-86089086D01*
X115465612Y-86050833D01*
X115462798Y-86046194D01*
X115439175Y-86003085D01*
X115381312Y-85924552D01*
X115379706Y-85922264D01*
X115327273Y-85843793D01*
X115294817Y-85806783D01*
X115291516Y-85802680D01*
X115260450Y-85760518D01*
X115260446Y-85760512D01*
X115240801Y-85740199D01*
X115194884Y-85692720D01*
X115192838Y-85690499D01*
X115132760Y-85621994D01*
X115093322Y-85587406D01*
X115089635Y-85583894D01*
X115050981Y-85543926D01*
X114979514Y-85487490D01*
X114977059Y-85485446D01*
X114910960Y-85427479D01*
X114864656Y-85396538D01*
X114860677Y-85393644D01*
X114814517Y-85357193D01*
X114799677Y-85348403D01*
X114738918Y-85312416D01*
X114736089Y-85310634D01*
X114665666Y-85263578D01*
X114612821Y-85237517D01*
X114608668Y-85235268D01*
X114555270Y-85203641D01*
X114555266Y-85203639D01*
X114555262Y-85203637D01*
X114525641Y-85191077D01*
X114477346Y-85170597D01*
X114474157Y-85169136D01*
X114401075Y-85133097D01*
X114342243Y-85113125D01*
X114337969Y-85111496D01*
X114299174Y-85095047D01*
X114277872Y-85086014D01*
X114277868Y-85086013D01*
X114277866Y-85086012D01*
X114199365Y-85064507D01*
X114195815Y-85063420D01*
X114121734Y-85038272D01*
X114121723Y-85038269D01*
X114121722Y-85038269D01*
X114057608Y-85025515D01*
X114053333Y-85024506D01*
X113987281Y-85006412D01*
X113987265Y-85006408D01*
X113909792Y-84995989D01*
X113905962Y-84995351D01*
X113859006Y-84986012D01*
X113832380Y-84980716D01*
X113832377Y-84980715D01*
X113832374Y-84980715D01*
X113763959Y-84976231D01*
X113759750Y-84975811D01*
X113725282Y-84971176D01*
X113688653Y-84966250D01*
X113688650Y-84966250D01*
X113613698Y-84966250D01*
X113609650Y-84966117D01*
X113577627Y-84964018D01*
X113538006Y-84961421D01*
X113538002Y-84961421D01*
X113538000Y-84961421D01*
X113508972Y-84963323D01*
X113466971Y-84966076D01*
X113464997Y-84966174D01*
X113462764Y-84966248D01*
X113401977Y-84970317D01*
X113389157Y-84971176D01*
X113345461Y-84974040D01*
X113243620Y-84980715D01*
X113242420Y-84980873D01*
X113238506Y-84981261D01*
X113237375Y-84981337D01*
X113237372Y-84981337D01*
X113237366Y-84981338D01*
X113123446Y-85004492D01*
X113094399Y-85010396D01*
X112954277Y-85038268D01*
X112954270Y-85038270D01*
X112953508Y-85038529D01*
X112945943Y-85040572D01*
X112942095Y-85041353D01*
X112807244Y-85088178D01*
X112674921Y-85133098D01*
X112671320Y-85134874D01*
X112664241Y-85137836D01*
X112657461Y-85140190D01*
X112657457Y-85140192D01*
X112532703Y-85203232D01*
X112410337Y-85263577D01*
X112410328Y-85263582D01*
X112404301Y-85267608D01*
X112397828Y-85271387D01*
X112388544Y-85276079D01*
X112275944Y-85353374D01*
X112165040Y-85427479D01*
X112161307Y-85430752D01*
X112157156Y-85434392D01*
X112151373Y-85438888D01*
X112140132Y-85446604D01*
X112041178Y-85536102D01*
X111943241Y-85621992D01*
X111934196Y-85632305D01*
X111929175Y-85637403D01*
X111916667Y-85648717D01*
X111916660Y-85648724D01*
X111832575Y-85748181D01*
X111748726Y-85843793D01*
X111739308Y-85857886D01*
X111735106Y-85863466D01*
X111722141Y-85878802D01*
X111722140Y-85878803D01*
X111654072Y-85985427D01*
X111653365Y-85986509D01*
X111584828Y-86089086D01*
X111575905Y-86107177D01*
X111572560Y-86113112D01*
X111562198Y-86129347D01*
X111560007Y-86132780D01*
X111542207Y-86171136D01*
X111508103Y-86244627D01*
X111507470Y-86245950D01*
X111454347Y-86353674D01*
X111454345Y-86353680D01*
X111446822Y-86375839D01*
X111444353Y-86382007D01*
X111433176Y-86406094D01*
X111433176Y-86406095D01*
X111397610Y-86520748D01*
X111397103Y-86522308D01*
X111359522Y-86633016D01*
X111359516Y-86633038D01*
X111354320Y-86659160D01*
X111352728Y-86665433D01*
X111343905Y-86693875D01*
X111324472Y-86809077D01*
X111324145Y-86810857D01*
X111301965Y-86922373D01*
X111301964Y-86922378D01*
X111300012Y-86952166D01*
X111299281Y-86958423D01*
X111293791Y-86990980D01*
X111289994Y-87104521D01*
X111289895Y-87106502D01*
X111282671Y-87216750D01*
X99163329Y-87216750D01*
X99161162Y-87183705D01*
X99161065Y-87177599D01*
X99162277Y-87141381D01*
X99151228Y-87031558D01*
X99151050Y-87029411D01*
X99144035Y-86922382D01*
X99144034Y-86922373D01*
X99144034Y-86922370D01*
X99136944Y-86886727D01*
X99136068Y-86880857D01*
X99132118Y-86841591D01*
X99132118Y-86841588D01*
X99107265Y-86737305D01*
X99106777Y-86735069D01*
X99086481Y-86633028D01*
X99073764Y-86595566D01*
X99072169Y-86590033D01*
X99062269Y-86548489D01*
X99024899Y-86451459D01*
X99024057Y-86449135D01*
X99009447Y-86406095D01*
X98991652Y-86353673D01*
X98972732Y-86315306D01*
X98970485Y-86310179D01*
X98953977Y-86267316D01*
X98905555Y-86178957D01*
X98904334Y-86176612D01*
X98871604Y-86110240D01*
X98861175Y-86089091D01*
X98861172Y-86089086D01*
X98835612Y-86050833D01*
X98832798Y-86046194D01*
X98809175Y-86003085D01*
X98751312Y-85924552D01*
X98749706Y-85922264D01*
X98697273Y-85843793D01*
X98664817Y-85806783D01*
X98661516Y-85802680D01*
X98630450Y-85760518D01*
X98630446Y-85760512D01*
X98610801Y-85740199D01*
X98564884Y-85692720D01*
X98562838Y-85690499D01*
X98502760Y-85621994D01*
X98463322Y-85587406D01*
X98459635Y-85583894D01*
X98420981Y-85543926D01*
X98349514Y-85487490D01*
X98347059Y-85485446D01*
X98280960Y-85427479D01*
X98234656Y-85396538D01*
X98230677Y-85393644D01*
X98184517Y-85357193D01*
X98169677Y-85348403D01*
X98108918Y-85312416D01*
X98106089Y-85310634D01*
X98035666Y-85263578D01*
X97982821Y-85237517D01*
X97978668Y-85235268D01*
X97925270Y-85203641D01*
X97925266Y-85203639D01*
X97925262Y-85203637D01*
X97895641Y-85191077D01*
X97847346Y-85170597D01*
X97844157Y-85169136D01*
X97771075Y-85133097D01*
X97712243Y-85113125D01*
X97707969Y-85111496D01*
X97669174Y-85095047D01*
X97647872Y-85086014D01*
X97647868Y-85086013D01*
X97647866Y-85086012D01*
X97569365Y-85064507D01*
X97565815Y-85063420D01*
X97491734Y-85038272D01*
X97491723Y-85038269D01*
X97491722Y-85038269D01*
X97427608Y-85025515D01*
X97423333Y-85024506D01*
X97357281Y-85006412D01*
X97357265Y-85006408D01*
X97279792Y-84995989D01*
X97275962Y-84995351D01*
X97229006Y-84986012D01*
X97202380Y-84980716D01*
X97202377Y-84980715D01*
X97202374Y-84980715D01*
X97133959Y-84976231D01*
X97129750Y-84975811D01*
X97095282Y-84971176D01*
X97058653Y-84966250D01*
X97058650Y-84966250D01*
X96983698Y-84966250D01*
X96979650Y-84966117D01*
X96947627Y-84964018D01*
X96908006Y-84961421D01*
X96908002Y-84961421D01*
X96908000Y-84961421D01*
X96878972Y-84963323D01*
X96836971Y-84966076D01*
X96834997Y-84966174D01*
X96832764Y-84966248D01*
X96771977Y-84970317D01*
X96759157Y-84971176D01*
X96715461Y-84974040D01*
X96613620Y-84980715D01*
X96612420Y-84980873D01*
X96608506Y-84981261D01*
X96607375Y-84981337D01*
X96607372Y-84981337D01*
X96607366Y-84981338D01*
X96493446Y-85004492D01*
X96464399Y-85010396D01*
X96324277Y-85038268D01*
X96324270Y-85038270D01*
X96323508Y-85038529D01*
X96315943Y-85040572D01*
X96312095Y-85041353D01*
X96177244Y-85088178D01*
X96044921Y-85133098D01*
X96041320Y-85134874D01*
X96034241Y-85137836D01*
X96027461Y-85140190D01*
X96027457Y-85140192D01*
X95902703Y-85203232D01*
X95780337Y-85263577D01*
X95780328Y-85263582D01*
X95774301Y-85267608D01*
X95767828Y-85271387D01*
X95758544Y-85276079D01*
X95645944Y-85353374D01*
X95535040Y-85427479D01*
X95531307Y-85430752D01*
X95527156Y-85434392D01*
X95521373Y-85438888D01*
X95510132Y-85446604D01*
X95411178Y-85536102D01*
X95313241Y-85621992D01*
X95304196Y-85632305D01*
X95299175Y-85637403D01*
X95286667Y-85648717D01*
X95286660Y-85648724D01*
X95202575Y-85748181D01*
X95118726Y-85843793D01*
X95109308Y-85857886D01*
X95105106Y-85863466D01*
X95092141Y-85878802D01*
X95092140Y-85878803D01*
X95024072Y-85985427D01*
X95023365Y-85986509D01*
X94954828Y-86089086D01*
X94945905Y-86107177D01*
X94942560Y-86113112D01*
X94932198Y-86129347D01*
X94930007Y-86132780D01*
X94912207Y-86171136D01*
X94878103Y-86244627D01*
X94877470Y-86245950D01*
X94824347Y-86353674D01*
X94824345Y-86353680D01*
X94816822Y-86375839D01*
X94814353Y-86382007D01*
X94803176Y-86406094D01*
X94803176Y-86406095D01*
X94767610Y-86520748D01*
X94767103Y-86522308D01*
X94729522Y-86633016D01*
X94729516Y-86633038D01*
X94724320Y-86659160D01*
X94722728Y-86665433D01*
X94713905Y-86693875D01*
X94694472Y-86809077D01*
X94694145Y-86810857D01*
X94671965Y-86922373D01*
X94671964Y-86922378D01*
X94670012Y-86952166D01*
X94669281Y-86958423D01*
X94663791Y-86990980D01*
X94659994Y-87104521D01*
X94659895Y-87106502D01*
X94652671Y-87216750D01*
X89916000Y-87216750D01*
X89916000Y-82674000D01*
X89935685Y-82606961D01*
X89988489Y-82561206D01*
X90040000Y-82550000D01*
X120272000Y-82550000D01*
X120339039Y-82569685D01*
G37*
%TD.AperFunction*%
%TD*%
M02*
