%TF.GenerationSoftware,KiCad,Pcbnew,7.0.5*%
%TF.CreationDate,2023-07-10T11:24:46-06:00*%
%TF.ProjectId,S_Tele,535f5465-6c65-42e6-9b69-6361645f7063,rev?*%
%TF.SameCoordinates,Original*%
%TF.FileFunction,Copper,L1,Top*%
%TF.FilePolarity,Positive*%
%FSLAX46Y46*%
G04 Gerber Fmt 4.6, Leading zero omitted, Abs format (unit mm)*
G04 Created by KiCad (PCBNEW 7.0.5) date 2023-07-10 11:24:46*
%MOMM*%
%LPD*%
G01*
G04 APERTURE LIST*
G04 Aperture macros list*
%AMRoundRect*
0 Rectangle with rounded corners*
0 $1 Rounding radius*
0 $2 $3 $4 $5 $6 $7 $8 $9 X,Y pos of 4 corners*
0 Add a 4 corners polygon primitive as box body*
4,1,4,$2,$3,$4,$5,$6,$7,$8,$9,$2,$3,0*
0 Add four circle primitives for the rounded corners*
1,1,$1+$1,$2,$3*
1,1,$1+$1,$4,$5*
1,1,$1+$1,$6,$7*
1,1,$1+$1,$8,$9*
0 Add four rect primitives between the rounded corners*
20,1,$1+$1,$2,$3,$4,$5,0*
20,1,$1+$1,$4,$5,$6,$7,0*
20,1,$1+$1,$6,$7,$8,$9,0*
20,1,$1+$1,$8,$9,$2,$3,0*%
G04 Aperture macros list end*
%TA.AperFunction,SMDPad,CuDef*%
%ADD10RoundRect,0.250000X-0.262500X-0.450000X0.262500X-0.450000X0.262500X0.450000X-0.262500X0.450000X0*%
%TD*%
%TA.AperFunction,SMDPad,CuDef*%
%ADD11RoundRect,0.250000X-0.312500X-0.275000X0.312500X-0.275000X0.312500X0.275000X-0.312500X0.275000X0*%
%TD*%
%TA.AperFunction,SMDPad,CuDef*%
%ADD12RoundRect,0.250000X0.262500X0.450000X-0.262500X0.450000X-0.262500X-0.450000X0.262500X-0.450000X0*%
%TD*%
%TA.AperFunction,SMDPad,CuDef*%
%ADD13RoundRect,0.250000X0.625000X-0.375000X0.625000X0.375000X-0.625000X0.375000X-0.625000X-0.375000X0*%
%TD*%
%TA.AperFunction,SMDPad,CuDef*%
%ADD14R,2.290000X5.080000*%
%TD*%
%TA.AperFunction,SMDPad,CuDef*%
%ADD15R,2.420000X5.080000*%
%TD*%
%TA.AperFunction,SMDPad,CuDef*%
%ADD16R,0.460000X0.950000*%
%TD*%
%TA.AperFunction,ComponentPad*%
%ADD17C,0.970000*%
%TD*%
%TA.AperFunction,SMDPad,CuDef*%
%ADD18RoundRect,0.250000X0.312500X0.625000X-0.312500X0.625000X-0.312500X-0.625000X0.312500X-0.625000X0*%
%TD*%
%TA.AperFunction,ComponentPad*%
%ADD19C,5.500000*%
%TD*%
%TA.AperFunction,SMDPad,CuDef*%
%ADD20RoundRect,0.250000X-0.450000X0.262500X-0.450000X-0.262500X0.450000X-0.262500X0.450000X0.262500X0*%
%TD*%
%TA.AperFunction,SMDPad,CuDef*%
%ADD21R,0.899999X0.300000*%
%TD*%
%TA.AperFunction,SMDPad,CuDef*%
%ADD22R,0.300000X0.899999*%
%TD*%
%TA.AperFunction,SMDPad,CuDef*%
%ADD23R,2.350000X2.350000*%
%TD*%
%TA.AperFunction,SMDPad,CuDef*%
%ADD24RoundRect,0.250000X0.325000X0.650000X-0.325000X0.650000X-0.325000X-0.650000X0.325000X-0.650000X0*%
%TD*%
%TA.AperFunction,SMDPad,CuDef*%
%ADD25RoundRect,0.250000X0.312500X0.275000X-0.312500X0.275000X-0.312500X-0.275000X0.312500X-0.275000X0*%
%TD*%
%TA.AperFunction,ComponentPad*%
%ADD26R,0.850000X0.850000*%
%TD*%
%TA.AperFunction,ComponentPad*%
%ADD27R,1.905000X2.000000*%
%TD*%
%TA.AperFunction,ComponentPad*%
%ADD28O,1.905000X2.000000*%
%TD*%
%TA.AperFunction,SMDPad,CuDef*%
%ADD29RoundRect,0.250000X0.450000X-0.262500X0.450000X0.262500X-0.450000X0.262500X-0.450000X-0.262500X0*%
%TD*%
%TA.AperFunction,SMDPad,CuDef*%
%ADD30RoundRect,0.250000X0.475000X-0.250000X0.475000X0.250000X-0.475000X0.250000X-0.475000X-0.250000X0*%
%TD*%
%TA.AperFunction,SMDPad,CuDef*%
%ADD31RoundRect,0.250000X-0.250000X-0.475000X0.250000X-0.475000X0.250000X0.475000X-0.250000X0.475000X0*%
%TD*%
%TA.AperFunction,ComponentPad*%
%ADD32R,1.600000X1.600000*%
%TD*%
%TA.AperFunction,ComponentPad*%
%ADD33O,1.600000X1.600000*%
%TD*%
%TA.AperFunction,ComponentPad*%
%ADD34C,1.440000*%
%TD*%
%TA.AperFunction,ComponentPad*%
%ADD35R,2.600000X2.600000*%
%TD*%
%TA.AperFunction,ComponentPad*%
%ADD36C,2.600000*%
%TD*%
%TA.AperFunction,ViaPad*%
%ADD37C,0.800000*%
%TD*%
%TA.AperFunction,Conductor*%
%ADD38C,0.800000*%
%TD*%
%TA.AperFunction,Conductor*%
%ADD39C,0.250000*%
%TD*%
%TA.AperFunction,Conductor*%
%ADD40C,0.533400*%
%TD*%
%TA.AperFunction,Conductor*%
%ADD41C,0.300000*%
%TD*%
G04 APERTURE END LIST*
D10*
%TO.P,R2,1*%
%TO.N,GND*%
X128223000Y-89884250D03*
%TO.P,R2,2*%
%TO.N,VSET*%
X130048000Y-89884250D03*
%TD*%
D11*
%TO.P,C4,1*%
%TO.N,+5VDC*%
X101855500Y-108362750D03*
%TO.P,C4,2*%
%TO.N,GND*%
X103630500Y-108362750D03*
%TD*%
D12*
%TO.P,R1,1*%
%TO.N,VOUT*%
X135128000Y-86074250D03*
%TO.P,R1,2*%
%TO.N,DCOUT*%
X133303000Y-86074250D03*
%TD*%
D13*
%TO.P,D1,1,K*%
%TO.N,Vin*%
X105283000Y-101637750D03*
%TO.P,D1,2,A*%
%TO.N,GND*%
X105283000Y-98837750D03*
%TD*%
D11*
%TO.P,C1,1*%
%TO.N,Vin*%
X101855500Y-112807750D03*
%TO.P,C1,2*%
%TO.N,GND*%
X103630500Y-112807750D03*
%TD*%
D12*
%TO.P,R3,1*%
%TO.N,RFIN*%
X134493000Y-109569250D03*
%TO.P,R3,2*%
%TO.N,GND*%
X132668000Y-109569250D03*
%TD*%
D14*
%TO.P,J5,1,In*%
%TO.N,Net-(J5-In)*%
X164173200Y-76615850D03*
D15*
%TO.P,J5,2,Ext*%
%TO.N,GND*%
X168553200Y-76615850D03*
X159793200Y-76615850D03*
D16*
X168553200Y-79605850D03*
X159793200Y-79605850D03*
D17*
X168553200Y-80055850D03*
X159793200Y-80055850D03*
%TD*%
D18*
%TO.P,Rf2,1*%
%TO.N,Net-(U4B-+)*%
X170894200Y-88474350D03*
%TO.P,Rf2,2*%
%TO.N,Net-(J8-In)*%
X167969200Y-88474350D03*
%TD*%
D19*
%TO.P,REF\u002A\u002A,1*%
%TO.N,N/C*%
X93726000Y-78740000D03*
%TD*%
D20*
%TO.P,R10,1*%
%TO.N,VREF*%
X124968000Y-96234250D03*
%TO.P,R10,2*%
%TO.N,VTGT*%
X124968000Y-98059250D03*
%TD*%
D10*
%TO.P,R6,1*%
%TO.N,VSET*%
X133303000Y-89884250D03*
%TO.P,R6,2*%
%TO.N,VOUT*%
X135128000Y-89884250D03*
%TD*%
D14*
%TO.P,J3,1,In*%
%TO.N,RFIN*%
X134493000Y-116929250D03*
D15*
%TO.P,J3,2,Ext*%
%TO.N,GND*%
X130113000Y-116929250D03*
X138873000Y-116929250D03*
D16*
X130113000Y-113939250D03*
X138873000Y-113939250D03*
D17*
X130113000Y-113489250D03*
X138873000Y-113489250D03*
%TD*%
D21*
%TO.P,U3,1,TADJ/PWDN*%
%TO.N,TADJ{slash}PWDN*%
X136688000Y-98474248D03*
%TO.P,U3,2,NC*%
%TO.N,unconnected-(U3-NC-Pad2)*%
X136688000Y-97824250D03*
%TO.P,U3,3,VPOS*%
%TO.N,+5VDC*%
X136688000Y-97174248D03*
%TO.P,U3,4,COMM*%
%TO.N,GND*%
X136688000Y-96524250D03*
D22*
%TO.P,U3,5,CLPF*%
%TO.N,CLPF*%
X135763000Y-95599250D03*
%TO.P,U3,6,VOUT*%
%TO.N,VOUT*%
X135113002Y-95599250D03*
%TO.P,U3,7,VSET*%
%TO.N,VSET*%
X134463000Y-95599250D03*
%TO.P,U3,8,TEMP*%
%TO.N,TEMP*%
X133813002Y-95599250D03*
D21*
%TO.P,U3,9,COMM*%
%TO.N,GND*%
X132888002Y-96524250D03*
%TO.P,U3,10,VPOS*%
%TO.N,+5VDC*%
X132888002Y-97174248D03*
%TO.P,U3,11,VREF*%
%TO.N,VREF*%
X132888002Y-97824250D03*
%TO.P,U3,12,VTGT*%
%TO.N,VTGT*%
X132888002Y-98474248D03*
D22*
%TO.P,U3,13,NC*%
%TO.N,unconnected-(U3-NC-Pad13)*%
X133813002Y-99399248D03*
%TO.P,U3,14,INHI*%
%TO.N,INHI*%
X134463000Y-99399248D03*
%TO.P,U3,15,INLO*%
%TO.N,INLO*%
X135113002Y-99399248D03*
%TO.P,U3,16,NC*%
%TO.N,unconnected-(U3-NC-Pad16)*%
X135763000Y-99399248D03*
D23*
%TO.P,U3,17,EPAD*%
%TO.N,GND*%
X134788001Y-97499249D03*
%TD*%
D14*
%TO.P,J4,1,In*%
%TO.N,DCOUT*%
X134366000Y-76523500D03*
D15*
%TO.P,J4,2,Ext*%
%TO.N,GND*%
X138746000Y-76523500D03*
X129986000Y-76523500D03*
D16*
X138746000Y-79513500D03*
X129986000Y-79513500D03*
D17*
X138746000Y-79963500D03*
X129986000Y-79963500D03*
%TD*%
D24*
%TO.P,C12,1*%
%TO.N,GND*%
X142953000Y-101314250D03*
%TO.P,C12,2*%
%TO.N,INLO*%
X140003000Y-101314250D03*
%TD*%
D25*
%TO.P,C2,1*%
%TO.N,+15VDC*%
X108633000Y-108362750D03*
%TO.P,C2,2*%
%TO.N,GND*%
X106858000Y-108362750D03*
%TD*%
D20*
%TO.P,R11,1*%
%TO.N,VTGT*%
X124968000Y-100401750D03*
%TO.P,R11,2*%
%TO.N,GND*%
X124968000Y-102226750D03*
%TD*%
D26*
%TO.P,J2,1,Pin_1*%
%TO.N,TEMP*%
X124460000Y-86010750D03*
%TD*%
D19*
%TO.P,REF\u002A\u002A,1*%
%TO.N,N/C*%
X191516000Y-78740000D03*
%TD*%
D27*
%TO.P,U1,1,IN*%
%TO.N,Vin*%
X94368000Y-103876750D03*
D28*
%TO.P,U1,2,GND*%
%TO.N,GND*%
X96908000Y-103876750D03*
%TO.P,U1,3,OUT*%
%TO.N,+15VDC*%
X99448000Y-103876750D03*
%TD*%
D19*
%TO.P,REF\u002A\u002A,1*%
%TO.N,N/C*%
X93726000Y-114300000D03*
%TD*%
%TO.P,REF\u002A\u002A,1*%
%TO.N,N/C*%
X191516000Y-114300000D03*
%TD*%
D29*
%TO.P,R9,1*%
%TO.N,TADJ{slash}PWDN*%
X142748000Y-96154250D03*
%TO.P,R9,2*%
%TO.N,VREF*%
X142748000Y-94329250D03*
%TD*%
D27*
%TO.P,U2,1,IN*%
%TO.N,+15VDC*%
X110998000Y-103876750D03*
D28*
%TO.P,U2,2,GND*%
%TO.N,GND*%
X113538000Y-103876750D03*
%TO.P,U2,3,OUT*%
%TO.N,+5VDC*%
X116078000Y-103876750D03*
%TD*%
D30*
%TO.P,C10,1*%
%TO.N,RFIN*%
X134493000Y-105644250D03*
%TO.P,C10,2*%
%TO.N,INHI*%
X134493000Y-103744250D03*
%TD*%
D31*
%TO.P,C9,1*%
%TO.N,CLPF*%
X139573000Y-89884250D03*
%TO.P,C9,2*%
%TO.N,GND*%
X141473000Y-89884250D03*
%TD*%
D14*
%TO.P,J6,1,In*%
%TO.N,Net-(J6-In)*%
X164173400Y-116929400D03*
D15*
%TO.P,J6,2,Ext*%
%TO.N,GND*%
X159793400Y-116929400D03*
X168553400Y-116929400D03*
D16*
X159793400Y-113939400D03*
X168553400Y-113939400D03*
D17*
X159793400Y-113489400D03*
X168553400Y-113489400D03*
%TD*%
D12*
%TO.P,R15,1*%
%TO.N,DCOUT*%
X130048000Y-86074250D03*
%TO.P,R15,2*%
%TO.N,GND*%
X128223000Y-86074250D03*
%TD*%
D29*
%TO.P,R12,1*%
%TO.N,TADJ{slash}PWDN*%
X145923000Y-96154250D03*
%TO.P,R12,2*%
%TO.N,GND*%
X145923000Y-94329250D03*
%TD*%
D32*
%TO.P,U4,1*%
%TO.N,Net-(J6-In)*%
X167979200Y-102053350D03*
D33*
%TO.P,U4,2,-*%
%TO.N,GND*%
X170519200Y-102053350D03*
%TO.P,U4,3,+*%
%TO.N,Net-(U4A-+)*%
X173059200Y-102053350D03*
%TO.P,U4,4,V-*%
%TO.N,GND*%
X175599200Y-102053350D03*
%TO.P,U4,5,+*%
%TO.N,Net-(U4B-+)*%
X175599200Y-94433350D03*
%TO.P,U4,6,-*%
%TO.N,GND*%
X173059200Y-94433350D03*
%TO.P,U4,7*%
%TO.N,Net-(J8-In)*%
X170519200Y-94433350D03*
%TO.P,U4,8,V+*%
%TO.N,+15VDC*%
X167979200Y-94433350D03*
%TD*%
D25*
%TO.P,C3,1*%
%TO.N,+15VDC*%
X108633000Y-112807750D03*
%TO.P,C3,2*%
%TO.N,GND*%
X106858000Y-112807750D03*
%TD*%
D34*
%TO.P,R_pot2,1,1*%
%TO.N,Net-(J7-In)*%
X185749200Y-91585850D03*
%TO.P,R_pot2,2,2*%
%TO.N,Net-(U4B-+)*%
X185749200Y-94125850D03*
%TO.P,R_pot2,3,3*%
%TO.N,unconnected-(R_pot2-Pad3)*%
X185749200Y-96665850D03*
%TD*%
D14*
%TO.P,J8,1,In*%
%TO.N,Net-(J8-In)*%
X180048400Y-117004400D03*
D15*
%TO.P,J8,2,Ext*%
%TO.N,GND*%
X175668400Y-117004400D03*
X184428400Y-117004400D03*
D16*
X175668400Y-114014400D03*
X184428400Y-114014400D03*
D17*
X175668400Y-113564400D03*
X184428400Y-113564400D03*
%TD*%
D18*
%TO.P,Rf1,1*%
%TO.N,Net-(U4A-+)*%
X170904200Y-108032350D03*
%TO.P,Rf1,2*%
%TO.N,Net-(J6-In)*%
X167979200Y-108032350D03*
%TD*%
D35*
%TO.P,J1,1,Pin_1*%
%TO.N,GND*%
X82423000Y-78898750D03*
D36*
%TO.P,J1,2,Pin_2*%
X82423000Y-83978750D03*
%TO.P,J1,3,Pin_3*%
X82423000Y-89058750D03*
%TO.P,J1,4,Pin_4*%
%TO.N,+5VDC*%
X82423000Y-94138750D03*
%TO.P,J1,5,Pin_5*%
X82423000Y-99218750D03*
%TO.P,J1,6,Pin_6*%
%TO.N,+15VDC*%
X82423000Y-104298750D03*
%TO.P,J1,7,Pin_7*%
X82423000Y-109378750D03*
%TO.P,J1,8,Pin_8*%
%TO.N,Vin*%
X82423000Y-114458750D03*
%TD*%
D14*
%TO.P,J7,1,In*%
%TO.N,Net-(J7-In)*%
X180048200Y-76615850D03*
D15*
%TO.P,J7,2,Ext*%
%TO.N,GND*%
X184428200Y-76615850D03*
X175668200Y-76615850D03*
D16*
X184428200Y-79605850D03*
X175668200Y-79605850D03*
D17*
X184428200Y-80055850D03*
X175668200Y-80055850D03*
%TD*%
D34*
%TO.P,R_pot1,1,1*%
%TO.N,Net-(J5-In)*%
X158444200Y-91585850D03*
%TO.P,R_pot1,2,2*%
%TO.N,Net-(U4A-+)*%
X158444200Y-94125850D03*
%TO.P,R_pot1,3,3*%
%TO.N,unconnected-(R_pot1-Pad3)*%
X158444200Y-96665850D03*
%TD*%
D37*
%TO.N,GND*%
X105156000Y-85598000D03*
X107696000Y-92710000D03*
X142113000Y-111416750D03*
X132588000Y-111416750D03*
X91186000Y-100330000D03*
X116332000Y-98298000D03*
X136398000Y-111416750D03*
X113538000Y-96520000D03*
X102616000Y-87122000D03*
X127508000Y-113956750D03*
X91186000Y-90170000D03*
X113538000Y-100330000D03*
X119126000Y-96520000D03*
X136398000Y-105066750D03*
X96901000Y-90170000D03*
X96901000Y-83820000D03*
X96901000Y-96520000D03*
X99314000Y-98298000D03*
X91186000Y-92710000D03*
X142113000Y-113956750D03*
X99568000Y-91440000D03*
X132588000Y-107606750D03*
X113538000Y-83820000D03*
X102616000Y-90170000D03*
X113538000Y-92710000D03*
X127508000Y-102526750D03*
X132588000Y-105066750D03*
X102616000Y-100330000D03*
X102616000Y-96520000D03*
X110998000Y-98298000D03*
X94234000Y-98298000D03*
X91186000Y-87122000D03*
X119126000Y-92710000D03*
X94234000Y-91598750D03*
X107696000Y-87122000D03*
X142113000Y-117131750D03*
X119126000Y-90170000D03*
X142113000Y-105066750D03*
X96901000Y-92710000D03*
X136398000Y-107606750D03*
X107696000Y-83820000D03*
X110744000Y-91440000D03*
X142113000Y-107606750D03*
X119126000Y-87122000D03*
X119126000Y-100330000D03*
X116332000Y-91440000D03*
X107696000Y-96520000D03*
X102616000Y-83820000D03*
X105156000Y-88392000D03*
X107696000Y-100330000D03*
X136398000Y-102526750D03*
X113538000Y-90170000D03*
X119126000Y-83820000D03*
X96901000Y-100330000D03*
X132588000Y-102526750D03*
X127508000Y-111416750D03*
X127508000Y-105066750D03*
X105283000Y-110648750D03*
X91186000Y-83820000D03*
X127508000Y-117131750D03*
X105156000Y-95138250D03*
X105156000Y-91440000D03*
X127508000Y-107606750D03*
X102616000Y-92710000D03*
X91186000Y-96520000D03*
X107696000Y-90170000D03*
%TO.N,+15VDC*%
X122428000Y-102520750D03*
X108458000Y-109632750D03*
%TO.N,+5VDC*%
X139446000Y-96424750D03*
X130429000Y-96424750D03*
%TO.N,VREF*%
X138811000Y-94361000D03*
X127381000Y-95758000D03*
%TD*%
D38*
%TO.N,Vin*%
X95968000Y-102276750D02*
X104644000Y-102276750D01*
X104644000Y-102276750D02*
X105283000Y-101637750D01*
X94368000Y-103876750D02*
X95968000Y-102276750D01*
X94368000Y-103876750D02*
X101855500Y-111364250D01*
X82423000Y-114458750D02*
X83820000Y-114458750D01*
X83820000Y-114458750D02*
X94368000Y-103910750D01*
X94368000Y-103910750D02*
X94368000Y-103876750D01*
X101855500Y-112807750D02*
X101855500Y-111364250D01*
D39*
%TO.N,GND*%
X138746000Y-79963500D02*
X138746000Y-87157250D01*
D38*
X106858000Y-108362750D02*
X106858000Y-109073750D01*
D39*
X136688000Y-93690000D02*
X139192000Y-91186000D01*
X142113000Y-105066750D02*
X142292327Y-105066750D01*
X119126000Y-92710000D02*
X122149577Y-95733577D01*
D38*
X94234000Y-91598750D02*
X101473000Y-98837750D01*
X91694000Y-89058750D02*
X91995625Y-89360375D01*
D39*
X175599200Y-96973350D02*
X173059200Y-94433350D01*
X123943000Y-106553000D02*
X123943000Y-102235000D01*
D38*
X106858000Y-109073750D02*
X105283000Y-110648750D01*
X94234000Y-91598750D02*
X91995625Y-89360375D01*
D39*
X129986000Y-79963500D02*
X128223000Y-81726500D01*
D38*
X106858000Y-112807750D02*
X106858000Y-112223750D01*
X91995625Y-89360375D02*
X86915625Y-84280375D01*
D39*
X133813002Y-96524250D02*
X134788001Y-97499249D01*
D38*
X86614000Y-83978750D02*
X86915625Y-84280375D01*
D39*
X145918000Y-94329250D02*
X141473000Y-89884250D01*
D38*
X106858000Y-112223750D02*
X105283000Y-110648750D01*
D39*
X122149577Y-95733577D02*
X123943000Y-95733577D01*
D38*
X103630500Y-112301250D02*
X105283000Y-110648750D01*
X82423000Y-89058750D02*
X90170000Y-89058750D01*
D39*
X126959250Y-109569250D02*
X123943000Y-106553000D01*
X146948000Y-95354250D02*
X146948000Y-97319250D01*
D38*
X103630500Y-108362750D02*
X103630500Y-108996250D01*
D39*
X142113000Y-105246077D02*
X142113000Y-105066750D01*
D38*
X103630500Y-108996250D02*
X105283000Y-110648750D01*
D39*
X139192000Y-91186000D02*
X140171250Y-91186000D01*
X123943000Y-102235000D02*
X123943000Y-95733577D01*
X130737754Y-94374002D02*
X132888002Y-96524250D01*
X142292327Y-105066750D02*
X142953000Y-104406077D01*
X175599200Y-102053350D02*
X175599200Y-96973350D01*
D38*
X113538000Y-102076750D02*
X113538000Y-103876750D01*
D39*
X140171250Y-91186000D02*
X141473000Y-89884250D01*
X125302575Y-94374002D02*
X130737754Y-94374002D01*
X123943000Y-107319250D02*
X123943000Y-106553000D01*
X124959750Y-102235000D02*
X124968000Y-102226750D01*
X145923000Y-94329250D02*
X146948000Y-95354250D01*
D38*
X82423000Y-79787750D02*
X86915625Y-84280375D01*
D39*
X127508000Y-111416750D02*
X127508000Y-110884250D01*
X145923000Y-94329250D02*
X145918000Y-94329250D01*
X132668000Y-109569250D02*
X126959250Y-109569250D01*
X123943000Y-102235000D02*
X124959750Y-102235000D01*
X135763000Y-96524250D02*
X134788001Y-97499249D01*
D38*
X101473000Y-98837750D02*
X105283000Y-98837750D01*
D39*
X132888002Y-96524250D02*
X133813002Y-96524250D01*
X127508000Y-110884250D02*
X123943000Y-107319250D01*
D38*
X90074750Y-89058750D02*
X90170000Y-89058750D01*
X103630500Y-112807750D02*
X103630500Y-112301250D01*
D39*
X184428400Y-113564400D02*
X184428400Y-110882550D01*
X146948000Y-97319250D02*
X142953000Y-101314250D01*
D38*
X82423000Y-83978750D02*
X86614000Y-83978750D01*
D39*
X136688000Y-96524250D02*
X136688000Y-93690000D01*
X138746000Y-87157250D02*
X141473000Y-89884250D01*
D38*
X105283000Y-98837750D02*
X110299000Y-98837750D01*
X110299000Y-98837750D02*
X113538000Y-102076750D01*
D39*
X123943000Y-95733577D02*
X125302575Y-94374002D01*
X136688000Y-96524250D02*
X135763000Y-96524250D01*
X184428400Y-110882550D02*
X175599200Y-102053350D01*
D38*
X90170000Y-89058750D02*
X91694000Y-89058750D01*
X82423000Y-78898750D02*
X82423000Y-79787750D01*
D39*
X128223000Y-81726500D02*
X128223000Y-89884250D01*
D38*
%TO.N,+15VDC*%
X119677067Y-102520750D02*
X122428000Y-102520750D01*
X108458000Y-108537750D02*
X108633000Y-108362750D01*
X108633000Y-112807750D02*
X108458000Y-112632750D01*
X111887000Y-109632750D02*
X112565067Y-109632750D01*
X108458000Y-109632750D02*
X111887000Y-109632750D01*
X108458000Y-112632750D02*
X108458000Y-108537750D01*
X112565067Y-109632750D02*
X119677067Y-102520750D01*
%TO.N,+5VDC*%
X101855500Y-108198168D02*
X101855500Y-108362750D01*
X114478000Y-105476750D02*
X116078000Y-103876750D01*
D39*
X136688000Y-97174248D02*
X138696502Y-97174248D01*
D38*
X104576918Y-105476750D02*
X114478000Y-105476750D01*
D39*
X132888002Y-97174248D02*
X131178498Y-97174248D01*
X131178498Y-97174248D02*
X130429000Y-96424750D01*
X138696502Y-97174248D02*
X139446000Y-96424750D01*
D38*
X104576918Y-105476750D02*
X101855500Y-108198168D01*
D39*
%TO.N,CLPF*%
X135763000Y-93694250D02*
X135763000Y-95599250D01*
X139573000Y-89884250D02*
X135763000Y-93694250D01*
D40*
%TO.N,INHI*%
X134463000Y-103714250D02*
X134493000Y-103744250D01*
X134463000Y-100621750D02*
X134463000Y-103714250D01*
D41*
%TO.N,INLO*%
X135113002Y-99399248D02*
X135113002Y-99844752D01*
D40*
X140003000Y-101314250D02*
X136328500Y-101314250D01*
D41*
X135113002Y-99844752D02*
X135128000Y-99859750D01*
D40*
X136328500Y-101314250D02*
X135509000Y-100494750D01*
D39*
%TO.N,DCOUT*%
X134112000Y-76677750D02*
X134380200Y-76409550D01*
X133303000Y-86074250D02*
X134112000Y-85265250D01*
X133604000Y-82518250D02*
X133604000Y-77185750D01*
X130048000Y-86074250D02*
X133604000Y-82518250D01*
X133604000Y-77185750D02*
X134380200Y-76409550D01*
X134112000Y-85265250D02*
X134112000Y-76677750D01*
%TO.N,Net-(J5-In)*%
X164149200Y-85880850D02*
X164149200Y-76615850D01*
X158444200Y-91585850D02*
X164149200Y-85880850D01*
%TO.N,Net-(J6-In)*%
X164159200Y-111852350D02*
X164159200Y-117043350D01*
X167979200Y-108032350D02*
X164159200Y-111852350D01*
X167979200Y-102053350D02*
X167979200Y-108032350D01*
%TO.N,Net-(J7-In)*%
X180024200Y-85860850D02*
X185749200Y-91585850D01*
X180024200Y-76615850D02*
X180024200Y-85860850D01*
%TO.N,TEMP*%
X133813002Y-95599250D02*
X133813002Y-93585752D01*
X131699000Y-91471750D02*
X126365000Y-91471750D01*
X133813002Y-93585752D02*
X131699000Y-91471750D01*
X126365000Y-91471750D02*
X124460000Y-89566750D01*
X124460000Y-86010750D02*
X124460000Y-89566750D01*
%TO.N,VOUT*%
X135113002Y-95599250D02*
X135113002Y-86089248D01*
X135113002Y-86089248D02*
X135128000Y-86074250D01*
%TO.N,VSET*%
X133303000Y-89884250D02*
X134463000Y-91044250D01*
X134463000Y-91044250D02*
X134463000Y-95599250D01*
X130048000Y-89884250D02*
X133303000Y-89884250D01*
%TO.N,TADJ{slash}PWDN*%
X140428002Y-98474248D02*
X142748000Y-96154250D01*
X136688000Y-98474248D02*
X140428002Y-98474248D01*
X140428002Y-98474248D02*
X143603002Y-98474248D01*
X143603002Y-98474248D02*
X145923000Y-96154250D01*
%TO.N,VREF*%
X126904750Y-96234250D02*
X127381000Y-95758000D01*
X132888002Y-97824250D02*
X126558000Y-97824250D01*
X138811000Y-94361000D02*
X142716250Y-94361000D01*
X124968000Y-96234250D02*
X126904750Y-96234250D01*
X126558000Y-97824250D02*
X124968000Y-96234250D01*
X142716250Y-94361000D02*
X142748000Y-94329250D01*
%TO.N,VTGT*%
X125382998Y-98474248D02*
X132888002Y-98474248D01*
X124968000Y-100401750D02*
X124968000Y-98059250D01*
X124968000Y-98059250D02*
X125382998Y-98474248D01*
%TO.N,Net-(U4A-+)*%
X170904200Y-108032350D02*
X173059200Y-105877350D01*
X173059200Y-105877350D02*
X173059200Y-102053350D01*
X158444200Y-94125850D02*
X165131700Y-94125850D01*
X165131700Y-94125850D02*
X173059200Y-102053350D01*
%TO.N,Net-(U4B-+)*%
X185749200Y-94125850D02*
X175906700Y-94125850D01*
X170894200Y-88474350D02*
X175599200Y-93179350D01*
X175906700Y-94125850D02*
X175599200Y-94433350D01*
X175599200Y-93179350D02*
X175599200Y-94433350D01*
%TO.N,Net-(J8-In)*%
X180048400Y-117004400D02*
X180048400Y-115609400D01*
X170519200Y-91024350D02*
X170519200Y-94433350D01*
X167969200Y-88474350D02*
X170519200Y-91024350D01*
X174184200Y-109745200D02*
X174184200Y-98098350D01*
X180048400Y-115609400D02*
X174184200Y-109745200D01*
X174184200Y-98098350D02*
X170519200Y-94433350D01*
D40*
%TO.N,RFIN*%
X134493000Y-109569250D02*
X134493000Y-105644250D01*
X134493000Y-116929250D02*
X134493000Y-109569250D01*
%TD*%
%TA.AperFunction,Conductor*%
%TO.N,INHI*%
G36*
X134602694Y-99398011D02*
G01*
X134610500Y-99402399D01*
X134613000Y-99409628D01*
X134613000Y-99624247D01*
X134616024Y-99723168D01*
X134616267Y-99731084D01*
X134616268Y-99731097D01*
X134625135Y-99826188D01*
X134625135Y-99826192D01*
X134638202Y-99913436D01*
X134638213Y-99913499D01*
X134654075Y-99996761D01*
X134671360Y-100080052D01*
X134688603Y-100166941D01*
X134688635Y-100167113D01*
X134704472Y-100261621D01*
X134704509Y-100261874D01*
X134717544Y-100367853D01*
X134717573Y-100368142D01*
X134726421Y-100489566D01*
X134726435Y-100489856D01*
X134729452Y-100620087D01*
X134726218Y-100628437D01*
X134719106Y-100631980D01*
X134464351Y-100661597D01*
X134461649Y-100661597D01*
X134206892Y-100631980D01*
X134199070Y-100627620D01*
X134196546Y-100620089D01*
X134199564Y-100489825D01*
X134199575Y-100489603D01*
X134208428Y-100368102D01*
X134208450Y-100367889D01*
X134221496Y-100261824D01*
X134221526Y-100261621D01*
X134237372Y-100167062D01*
X134237395Y-100166941D01*
X134254640Y-100080052D01*
X134260689Y-100050898D01*
X134271921Y-99996774D01*
X134287792Y-99913465D01*
X134300863Y-99826194D01*
X134309732Y-99731082D01*
X134313000Y-99624247D01*
X134313000Y-99409628D01*
X134316427Y-99401355D01*
X134323305Y-99398011D01*
X134461608Y-99381415D01*
X134464392Y-99381415D01*
X134602694Y-99398011D01*
G37*
%TD.AperFunction*%
%TD*%
%TA.AperFunction,Conductor*%
%TO.N,INLO*%
G36*
X135007654Y-99324770D02*
G01*
X135241731Y-99420828D01*
X135248083Y-99427138D01*
X135248112Y-99436093D01*
X135246743Y-99438542D01*
X135171739Y-99541448D01*
X135171739Y-99541449D01*
X135178793Y-99631065D01*
X135178804Y-99631235D01*
X135183049Y-99721883D01*
X135245421Y-99796355D01*
X135289395Y-99850520D01*
X135302227Y-99866326D01*
X135302227Y-99866327D01*
X135302228Y-99866327D01*
X135359034Y-99936300D01*
X135359041Y-99936308D01*
X135421379Y-100010738D01*
X135421428Y-100010795D01*
X135494925Y-100094255D01*
X135494938Y-100094269D01*
X135558365Y-100162449D01*
X135585116Y-100191205D01*
X135585139Y-100191229D01*
X135585149Y-100191239D01*
X135697584Y-100306164D01*
X135720002Y-100328582D01*
X135723429Y-100336855D01*
X135722271Y-100341931D01*
X135605068Y-100585352D01*
X135599602Y-100590818D01*
X135356181Y-100708021D01*
X135347240Y-100708522D01*
X135342832Y-100705752D01*
X135320519Y-100683439D01*
X135320316Y-100683225D01*
X135274503Y-100632549D01*
X135210124Y-100561334D01*
X135209702Y-100560809D01*
X135131562Y-100450988D01*
X135131180Y-100450375D01*
X135076925Y-100349462D01*
X135076655Y-100348886D01*
X135059405Y-100306164D01*
X135038241Y-100253750D01*
X135038126Y-100253437D01*
X135008062Y-100162448D01*
X135007490Y-100159434D01*
X135002375Y-100068357D01*
X134989181Y-99972774D01*
X134967363Y-99909514D01*
X134950839Y-99861602D01*
X134950200Y-99857787D01*
X134950200Y-99430389D01*
X134951174Y-99425715D01*
X134992487Y-99330921D01*
X134998934Y-99324705D01*
X135007654Y-99324770D01*
G37*
%TD.AperFunction*%
%TD*%
%TA.AperFunction,Conductor*%
%TO.N,GND*%
G36*
X133224541Y-99079685D02*
G01*
X133270296Y-99132489D01*
X133281502Y-99183999D01*
X133281502Y-99885454D01*
X133292306Y-99959609D01*
X133292306Y-99959610D01*
X133292307Y-99959612D01*
X133348223Y-100073991D01*
X133348225Y-100073994D01*
X133438255Y-100164024D01*
X133438258Y-100164026D01*
X133535923Y-100211771D01*
X133552641Y-100219944D01*
X133626796Y-100230748D01*
X133697548Y-100230748D01*
X133764587Y-100250433D01*
X133810342Y-100303237D01*
X133821220Y-100363760D01*
X133813936Y-100463718D01*
X133813658Y-100468249D01*
X133813413Y-100473216D01*
X133813226Y-100478339D01*
X133810148Y-100611222D01*
X133810055Y-100617258D01*
X133813255Y-100637340D01*
X133814799Y-100656850D01*
X133814800Y-102810025D01*
X133795115Y-102877064D01*
X133753921Y-102916757D01*
X133627875Y-102991299D01*
X133627867Y-102991305D01*
X133515055Y-103104117D01*
X133515049Y-103104125D01*
X133433832Y-103241456D01*
X133433830Y-103241462D01*
X133389319Y-103394669D01*
X133389317Y-103394680D01*
X133386500Y-103430474D01*
X133386500Y-104058025D01*
X133389317Y-104093819D01*
X133389319Y-104093830D01*
X133433830Y-104247037D01*
X133433832Y-104247043D01*
X133515049Y-104384374D01*
X133515055Y-104384382D01*
X133627867Y-104497194D01*
X133627871Y-104497197D01*
X133627873Y-104497199D01*
X133627876Y-104497200D01*
X133627875Y-104497200D01*
X133765206Y-104578417D01*
X133769902Y-104580449D01*
X133823609Y-104625140D01*
X133844629Y-104691773D01*
X133826288Y-104759192D01*
X133774409Y-104805993D01*
X133769902Y-104808051D01*
X133765206Y-104810082D01*
X133627875Y-104891299D01*
X133627867Y-104891305D01*
X133515055Y-105004117D01*
X133515049Y-105004125D01*
X133433832Y-105141456D01*
X133433830Y-105141462D01*
X133389319Y-105294669D01*
X133389317Y-105294680D01*
X133386500Y-105330474D01*
X133386500Y-105958025D01*
X133389317Y-105993819D01*
X133389319Y-105993830D01*
X133433830Y-106147037D01*
X133433832Y-106147043D01*
X133515049Y-106284374D01*
X133515055Y-106284382D01*
X133627867Y-106397194D01*
X133627876Y-106397201D01*
X133765204Y-106478416D01*
X133765206Y-106478416D01*
X133765208Y-106478418D01*
X133765209Y-106478418D01*
X133770038Y-106480508D01*
X133823750Y-106525194D01*
X133844775Y-106591825D01*
X133844800Y-106594313D01*
X133844800Y-108560511D01*
X133825115Y-108627550D01*
X133808481Y-108648192D01*
X133727555Y-108729117D01*
X133727549Y-108729125D01*
X133646332Y-108866456D01*
X133646330Y-108866462D01*
X133601819Y-109019669D01*
X133601817Y-109019680D01*
X133599000Y-109055474D01*
X133599000Y-110083025D01*
X133601817Y-110118819D01*
X133601819Y-110118830D01*
X133646330Y-110272037D01*
X133646332Y-110272043D01*
X133727549Y-110409374D01*
X133727555Y-110409382D01*
X133808480Y-110490307D01*
X133841965Y-110551630D01*
X133844799Y-110577988D01*
X133844800Y-113883750D01*
X133825115Y-113950789D01*
X133772311Y-113996544D01*
X133720800Y-114007750D01*
X133311794Y-114007750D01*
X133237639Y-114018554D01*
X133237637Y-114018554D01*
X133237635Y-114018555D01*
X133123256Y-114074471D01*
X133123253Y-114074473D01*
X133033223Y-114164503D01*
X133033221Y-114164506D01*
X132977305Y-114278885D01*
X132977304Y-114278887D01*
X132977304Y-114278889D01*
X132966500Y-114353044D01*
X132966499Y-114353049D01*
X132966500Y-114353049D01*
X132966500Y-117986000D01*
X132946815Y-118053039D01*
X132894011Y-118098794D01*
X132842500Y-118110000D01*
X126870000Y-118110000D01*
X126802961Y-118090315D01*
X126757206Y-118037511D01*
X126746000Y-117986000D01*
X126746000Y-99184000D01*
X126765685Y-99116961D01*
X126818489Y-99071206D01*
X126870000Y-99060000D01*
X133157502Y-99060000D01*
X133224541Y-99079685D01*
G37*
%TD.AperFunction*%
%TA.AperFunction,Conductor*%
G36*
X143199039Y-99079685D02*
G01*
X143244794Y-99132489D01*
X143256000Y-99184000D01*
X143256000Y-117986000D01*
X143236315Y-118053039D01*
X143183511Y-118098794D01*
X143132000Y-118110000D01*
X136143500Y-118110000D01*
X136076461Y-118090315D01*
X136030706Y-118037511D01*
X136019500Y-117986000D01*
X136019500Y-114353049D01*
X136019500Y-114353048D01*
X136019500Y-114353044D01*
X136008696Y-114278889D01*
X136006361Y-114274113D01*
X135952778Y-114164506D01*
X135952776Y-114164503D01*
X135862746Y-114074473D01*
X135862743Y-114074471D01*
X135748364Y-114018555D01*
X135748362Y-114018554D01*
X135748361Y-114018554D01*
X135674206Y-114007750D01*
X135674200Y-114007750D01*
X135265200Y-114007750D01*
X135198161Y-113988065D01*
X135152406Y-113935261D01*
X135141200Y-113883750D01*
X135141200Y-110577988D01*
X135160885Y-110510949D01*
X135177514Y-110490311D01*
X135258449Y-110409377D01*
X135339668Y-110272042D01*
X135384182Y-110118824D01*
X135387000Y-110083020D01*
X135387000Y-109055480D01*
X135384182Y-109019676D01*
X135339668Y-108866458D01*
X135258449Y-108729123D01*
X135258447Y-108729121D01*
X135258444Y-108729117D01*
X135177519Y-108648192D01*
X135144034Y-108586869D01*
X135141200Y-108560511D01*
X135141200Y-106594313D01*
X135160885Y-106527274D01*
X135213689Y-106481519D01*
X135215962Y-106480508D01*
X135220787Y-106478419D01*
X135220792Y-106478418D01*
X135358127Y-106397199D01*
X135470949Y-106284377D01*
X135552168Y-106147042D01*
X135596682Y-105993824D01*
X135599500Y-105958020D01*
X135599500Y-105330480D01*
X135596682Y-105294676D01*
X135552168Y-105141458D01*
X135470949Y-105004123D01*
X135470947Y-105004121D01*
X135470944Y-105004117D01*
X135358132Y-104891305D01*
X135358124Y-104891299D01*
X135220790Y-104810081D01*
X135216101Y-104808052D01*
X135162392Y-104763363D01*
X135141370Y-104696731D01*
X135159709Y-104629311D01*
X135211587Y-104582509D01*
X135216101Y-104580448D01*
X135220785Y-104578419D01*
X135220792Y-104578418D01*
X135358127Y-104497199D01*
X135470949Y-104384377D01*
X135552168Y-104247042D01*
X135596682Y-104093824D01*
X135599500Y-104058020D01*
X135599500Y-103430480D01*
X135596682Y-103394676D01*
X135552168Y-103241458D01*
X135470949Y-103104123D01*
X135470947Y-103104121D01*
X135470944Y-103104117D01*
X135358132Y-102991305D01*
X135358124Y-102991299D01*
X135220790Y-102910081D01*
X135200603Y-102904216D01*
X135141718Y-102866608D01*
X135112513Y-102803135D01*
X135111200Y-102785140D01*
X135111200Y-101313005D01*
X135130885Y-101245966D01*
X135183689Y-101200211D01*
X135252847Y-101190267D01*
X135316403Y-101219292D01*
X135322881Y-101225324D01*
X135809873Y-101712317D01*
X135819924Y-101724862D01*
X135820115Y-101724705D01*
X135825086Y-101730714D01*
X135876639Y-101779126D01*
X135878006Y-101780450D01*
X135898990Y-101801434D01*
X135904753Y-101805905D01*
X135909195Y-101809699D01*
X135944469Y-101842823D01*
X135944473Y-101842826D01*
X135962970Y-101852994D01*
X135979225Y-101863671D01*
X135995917Y-101876618D01*
X136040341Y-101895842D01*
X136045572Y-101898404D01*
X136087985Y-101921721D01*
X136108438Y-101926972D01*
X136126834Y-101933270D01*
X136146221Y-101941660D01*
X136179574Y-101946942D01*
X136194019Y-101949230D01*
X136199734Y-101950413D01*
X136246613Y-101962450D01*
X136267731Y-101962450D01*
X136287128Y-101963976D01*
X136307978Y-101967279D01*
X136356156Y-101962724D01*
X136361993Y-101962450D01*
X138927399Y-101962450D01*
X138994438Y-101982135D01*
X139040193Y-102034939D01*
X139047376Y-102057790D01*
X139047550Y-102057740D01*
X139093830Y-102217037D01*
X139093832Y-102217043D01*
X139175049Y-102354374D01*
X139175055Y-102354382D01*
X139287867Y-102467194D01*
X139287871Y-102467197D01*
X139287873Y-102467199D01*
X139425208Y-102548418D01*
X139578426Y-102592932D01*
X139614230Y-102595750D01*
X139614236Y-102595750D01*
X140391764Y-102595750D01*
X140391770Y-102595750D01*
X140427574Y-102592932D01*
X140580792Y-102548418D01*
X140718127Y-102467199D01*
X140830949Y-102354377D01*
X140912168Y-102217042D01*
X140956682Y-102063824D01*
X140959500Y-102028020D01*
X140959500Y-100600480D01*
X140956682Y-100564676D01*
X140912168Y-100411458D01*
X140830949Y-100274123D01*
X140830947Y-100274121D01*
X140830944Y-100274117D01*
X140718132Y-100161305D01*
X140718124Y-100161299D01*
X140580793Y-100080082D01*
X140580787Y-100080080D01*
X140427580Y-100035569D01*
X140427569Y-100035567D01*
X140391775Y-100032750D01*
X140391770Y-100032750D01*
X139614230Y-100032750D01*
X139614224Y-100032750D01*
X139578430Y-100035567D01*
X139578419Y-100035569D01*
X139425212Y-100080080D01*
X139425206Y-100080082D01*
X139287875Y-100161299D01*
X139287867Y-100161305D01*
X139175055Y-100274117D01*
X139175049Y-100274125D01*
X139093832Y-100411456D01*
X139093830Y-100411462D01*
X139047550Y-100570760D01*
X139046324Y-100570404D01*
X139017970Y-100626743D01*
X138957803Y-100662265D01*
X138927399Y-100666050D01*
X136648355Y-100666050D01*
X136581316Y-100646365D01*
X136560674Y-100629731D01*
X136204038Y-100273094D01*
X136170553Y-100211771D01*
X136175537Y-100142079D01*
X136204037Y-100097732D01*
X136227776Y-100073994D01*
X136227776Y-100073992D01*
X136227778Y-100073991D01*
X136255735Y-100016801D01*
X136283696Y-99959609D01*
X136294500Y-99885454D01*
X136294500Y-99183999D01*
X136314185Y-99116961D01*
X136366989Y-99071206D01*
X136418500Y-99060000D01*
X143132000Y-99060000D01*
X143199039Y-99079685D01*
G37*
%TD.AperFunction*%
%TD*%
%TA.AperFunction,Conductor*%
%TO.N,GND*%
G36*
X120339039Y-82569685D02*
G01*
X120384794Y-82622489D01*
X120396000Y-82674000D01*
X120396000Y-101476000D01*
X120376315Y-101543039D01*
X120323511Y-101588794D01*
X120272000Y-101600000D01*
X106782499Y-101600000D01*
X106715460Y-101580315D01*
X106669705Y-101527511D01*
X106658499Y-101476000D01*
X106658499Y-101212748D01*
X106658498Y-101212731D01*
X106647999Y-101109953D01*
X106647998Y-101109950D01*
X106592814Y-100943416D01*
X106500712Y-100794094D01*
X106376656Y-100670038D01*
X106227334Y-100577936D01*
X106060797Y-100522751D01*
X106060795Y-100522750D01*
X105958010Y-100512250D01*
X104607998Y-100512250D01*
X104607981Y-100512251D01*
X104505203Y-100522750D01*
X104505200Y-100522751D01*
X104338668Y-100577935D01*
X104338663Y-100577937D01*
X104189342Y-100670039D01*
X104065289Y-100794092D01*
X103973187Y-100943413D01*
X103973185Y-100943416D01*
X103973186Y-100943416D01*
X103918001Y-101109953D01*
X103918001Y-101109954D01*
X103918000Y-101109954D01*
X103907500Y-101212733D01*
X103907500Y-101252250D01*
X103887815Y-101319289D01*
X103835011Y-101365044D01*
X103783500Y-101376250D01*
X96048627Y-101376250D01*
X96029228Y-101374723D01*
X96015388Y-101372531D01*
X95946041Y-101376165D01*
X95942798Y-101376250D01*
X95920808Y-101376250D01*
X95914559Y-101376906D01*
X95898941Y-101378547D01*
X95895710Y-101378801D01*
X95826358Y-101382436D01*
X95826353Y-101382437D01*
X95812803Y-101386067D01*
X95793691Y-101389609D01*
X95779749Y-101391075D01*
X95779737Y-101391077D01*
X95727469Y-101408060D01*
X95713687Y-101412538D01*
X95710607Y-101413451D01*
X95673695Y-101423341D01*
X95643514Y-101431429D01*
X95631020Y-101437795D01*
X95613053Y-101445237D01*
X95599714Y-101449571D01*
X95539591Y-101484283D01*
X95536740Y-101485831D01*
X95474850Y-101517367D01*
X95463951Y-101526192D01*
X95447931Y-101537202D01*
X95435787Y-101544214D01*
X95435783Y-101544217D01*
X95409202Y-101568151D01*
X95346210Y-101598380D01*
X95326231Y-101600000D01*
X90040000Y-101600000D01*
X89972961Y-101580315D01*
X89927206Y-101527511D01*
X89916000Y-101476000D01*
X89916000Y-99087750D01*
X103908001Y-99087750D01*
X103908001Y-99262736D01*
X103918494Y-99365447D01*
X103973641Y-99531869D01*
X103973643Y-99531874D01*
X104065684Y-99681095D01*
X104189654Y-99805065D01*
X104338875Y-99897106D01*
X104338880Y-99897108D01*
X104505302Y-99952255D01*
X104505309Y-99952256D01*
X104608019Y-99962749D01*
X105032999Y-99962749D01*
X105033000Y-99962748D01*
X105033000Y-99087750D01*
X105533000Y-99087750D01*
X105533000Y-99962749D01*
X105957972Y-99962749D01*
X105957986Y-99962748D01*
X106060697Y-99952255D01*
X106227119Y-99897108D01*
X106227124Y-99897106D01*
X106376345Y-99805065D01*
X106500315Y-99681095D01*
X106592356Y-99531874D01*
X106592358Y-99531869D01*
X106647505Y-99365447D01*
X106647506Y-99365440D01*
X106657999Y-99262736D01*
X106658000Y-99262723D01*
X106658000Y-99087750D01*
X105533000Y-99087750D01*
X105033000Y-99087750D01*
X103908001Y-99087750D01*
X89916000Y-99087750D01*
X89916000Y-98587750D01*
X103908000Y-98587750D01*
X105033000Y-98587750D01*
X105033000Y-97712750D01*
X105533000Y-97712750D01*
X105533000Y-98587750D01*
X106657999Y-98587750D01*
X106657999Y-98412778D01*
X106657998Y-98412763D01*
X106647505Y-98310052D01*
X106592358Y-98143630D01*
X106592356Y-98143625D01*
X106500315Y-97994404D01*
X106376345Y-97870434D01*
X106227124Y-97778393D01*
X106227119Y-97778391D01*
X106060697Y-97723244D01*
X106060690Y-97723243D01*
X105957986Y-97712750D01*
X105533000Y-97712750D01*
X105033000Y-97712750D01*
X104608028Y-97712750D01*
X104608012Y-97712751D01*
X104505302Y-97723244D01*
X104338880Y-97778391D01*
X104338875Y-97778393D01*
X104189654Y-97870434D01*
X104065684Y-97994404D01*
X103973643Y-98143625D01*
X103973641Y-98143630D01*
X103918494Y-98310052D01*
X103918493Y-98310059D01*
X103908000Y-98412763D01*
X103908000Y-98587750D01*
X89916000Y-98587750D01*
X89916000Y-87216750D01*
X94652671Y-87216750D01*
X94654835Y-87249777D01*
X94654933Y-87255905D01*
X94653723Y-87292117D01*
X94653723Y-87292127D01*
X94664772Y-87401960D01*
X94664951Y-87404110D01*
X94671965Y-87511126D01*
X94671966Y-87511139D01*
X94679050Y-87546753D01*
X94679930Y-87552641D01*
X94683882Y-87591914D01*
X94708727Y-87696171D01*
X94709225Y-87698448D01*
X94729516Y-87800461D01*
X94729518Y-87800469D01*
X94742230Y-87837921D01*
X94743831Y-87843477D01*
X94753729Y-87885005D01*
X94753730Y-87885008D01*
X94753731Y-87885011D01*
X94764410Y-87912739D01*
X94791094Y-87982023D01*
X94791940Y-87984359D01*
X94824348Y-88079827D01*
X94836294Y-88104051D01*
X94843263Y-88118183D01*
X94845515Y-88123323D01*
X94862019Y-88166178D01*
X94862023Y-88166186D01*
X94892486Y-88221773D01*
X94910441Y-88254539D01*
X94911665Y-88256891D01*
X94954822Y-88344405D01*
X94954833Y-88344423D01*
X94980380Y-88382657D01*
X94983199Y-88387307D01*
X95006822Y-88430409D01*
X95006829Y-88430421D01*
X95064671Y-88508925D01*
X95066308Y-88511257D01*
X95107366Y-88572705D01*
X95118727Y-88589707D01*
X95151182Y-88626715D01*
X95154482Y-88630818D01*
X95185551Y-88672985D01*
X95251114Y-88740778D01*
X95253160Y-88742999D01*
X95313242Y-88811508D01*
X95348025Y-88842012D01*
X95352670Y-88846086D01*
X95356358Y-88849599D01*
X95395018Y-88889572D01*
X95395020Y-88889574D01*
X95404934Y-88897403D01*
X95466495Y-88946017D01*
X95468950Y-88948061D01*
X95535040Y-89006020D01*
X95535040Y-89006021D01*
X95581336Y-89036955D01*
X95585307Y-89039842D01*
X95631484Y-89076307D01*
X95631485Y-89076308D01*
X95707059Y-89121070D01*
X95709897Y-89122856D01*
X95761622Y-89157418D01*
X95780338Y-89169924D01*
X95797190Y-89178234D01*
X95833187Y-89195986D01*
X95837318Y-89198223D01*
X95871458Y-89218444D01*
X95890717Y-89229852D01*
X95890722Y-89229854D01*
X95890730Y-89229859D01*
X95968665Y-89262906D01*
X95971826Y-89264354D01*
X96044923Y-89300402D01*
X96103759Y-89320374D01*
X96108014Y-89321995D01*
X96168128Y-89347486D01*
X96246640Y-89368992D01*
X96250160Y-89370070D01*
X96324278Y-89395231D01*
X96382967Y-89406904D01*
X96388384Y-89407982D01*
X96392658Y-89408991D01*
X96458729Y-89427090D01*
X96536224Y-89437511D01*
X96540037Y-89438147D01*
X96613620Y-89452784D01*
X96682067Y-89457269D01*
X96686246Y-89457687D01*
X96757347Y-89467250D01*
X96832302Y-89467250D01*
X96836349Y-89467382D01*
X96868372Y-89469481D01*
X96907994Y-89472079D01*
X96908000Y-89472079D01*
X96908004Y-89472079D01*
X96917771Y-89471438D01*
X96979141Y-89467416D01*
X96981032Y-89467323D01*
X96983218Y-89467250D01*
X96983244Y-89467250D01*
X97056670Y-89462334D01*
X97056845Y-89462373D01*
X97056842Y-89462324D01*
X97149347Y-89456259D01*
X97202380Y-89452784D01*
X97202411Y-89452777D01*
X97203522Y-89452632D01*
X97207478Y-89452239D01*
X97208634Y-89452162D01*
X97351658Y-89423091D01*
X97491722Y-89395231D01*
X97492442Y-89394986D01*
X97500018Y-89392935D01*
X97503903Y-89392146D01*
X97638821Y-89345297D01*
X97771077Y-89300402D01*
X97774687Y-89298621D01*
X97781754Y-89295664D01*
X97788537Y-89293310D01*
X97913220Y-89230304D01*
X98035665Y-89169922D01*
X98041700Y-89165888D01*
X98048164Y-89162114D01*
X98057459Y-89157418D01*
X98170040Y-89080135D01*
X98280957Y-89006023D01*
X98288840Y-88999108D01*
X98294622Y-88994613D01*
X98305869Y-88986894D01*
X98404824Y-88897393D01*
X98502758Y-88811508D01*
X98511799Y-88801196D01*
X98516823Y-88796095D01*
X98529333Y-88784782D01*
X98613443Y-88685295D01*
X98697273Y-88589707D01*
X98706687Y-88575616D01*
X98710895Y-88570029D01*
X98723863Y-88554691D01*
X98723865Y-88554689D01*
X98791941Y-88448048D01*
X98792592Y-88447051D01*
X98861172Y-88344415D01*
X98870098Y-88326312D01*
X98873441Y-88320381D01*
X98885993Y-88300720D01*
X98937920Y-88188817D01*
X98938527Y-88187552D01*
X98991649Y-88079834D01*
X98991652Y-88079827D01*
X98991652Y-88079826D01*
X98999179Y-88057649D01*
X99001641Y-88051502D01*
X99012823Y-88027408D01*
X99048417Y-87912659D01*
X99048858Y-87911301D01*
X99086481Y-87800472D01*
X99091677Y-87774347D01*
X99093271Y-87768066D01*
X99102093Y-87739629D01*
X99121534Y-87624373D01*
X99121847Y-87622671D01*
X99144034Y-87511130D01*
X99145986Y-87481326D01*
X99146714Y-87475092D01*
X99152209Y-87442520D01*
X99156006Y-87328919D01*
X99156104Y-87326968D01*
X99163329Y-87216755D01*
X99163329Y-87216751D01*
X99163329Y-87216750D01*
X111282671Y-87216750D01*
X111284835Y-87249777D01*
X111284933Y-87255905D01*
X111283723Y-87292117D01*
X111283723Y-87292127D01*
X111294772Y-87401960D01*
X111294951Y-87404110D01*
X111301965Y-87511126D01*
X111301966Y-87511139D01*
X111309050Y-87546753D01*
X111309930Y-87552641D01*
X111313882Y-87591914D01*
X111338727Y-87696171D01*
X111339225Y-87698448D01*
X111359516Y-87800461D01*
X111359518Y-87800469D01*
X111372230Y-87837921D01*
X111373831Y-87843477D01*
X111383729Y-87885005D01*
X111383730Y-87885008D01*
X111383731Y-87885011D01*
X111394410Y-87912739D01*
X111421094Y-87982023D01*
X111421940Y-87984359D01*
X111454348Y-88079827D01*
X111466294Y-88104051D01*
X111473263Y-88118183D01*
X111475515Y-88123323D01*
X111492019Y-88166178D01*
X111492023Y-88166186D01*
X111522486Y-88221773D01*
X111540441Y-88254539D01*
X111541665Y-88256891D01*
X111584822Y-88344405D01*
X111584833Y-88344423D01*
X111610380Y-88382657D01*
X111613199Y-88387307D01*
X111636822Y-88430409D01*
X111636829Y-88430421D01*
X111694671Y-88508925D01*
X111696308Y-88511257D01*
X111737366Y-88572705D01*
X111748727Y-88589707D01*
X111781182Y-88626715D01*
X111784482Y-88630818D01*
X111815551Y-88672985D01*
X111881114Y-88740778D01*
X111883160Y-88742999D01*
X111943242Y-88811508D01*
X111978025Y-88842012D01*
X111982670Y-88846086D01*
X111986358Y-88849599D01*
X112025018Y-88889572D01*
X112025020Y-88889574D01*
X112034934Y-88897403D01*
X112096495Y-88946017D01*
X112098950Y-88948061D01*
X112165040Y-89006020D01*
X112165040Y-89006021D01*
X112211336Y-89036955D01*
X112215307Y-89039842D01*
X112261485Y-89076308D01*
X112337059Y-89121070D01*
X112339897Y-89122856D01*
X112391622Y-89157418D01*
X112410338Y-89169924D01*
X112427190Y-89178234D01*
X112463187Y-89195986D01*
X112467318Y-89198223D01*
X112501458Y-89218444D01*
X112520717Y-89229852D01*
X112520722Y-89229854D01*
X112520730Y-89229859D01*
X112598665Y-89262906D01*
X112601826Y-89264354D01*
X112674923Y-89300402D01*
X112733759Y-89320374D01*
X112738014Y-89321995D01*
X112798128Y-89347486D01*
X112876640Y-89368992D01*
X112880160Y-89370070D01*
X112954278Y-89395231D01*
X113012967Y-89406904D01*
X113018384Y-89407982D01*
X113022658Y-89408991D01*
X113088729Y-89427090D01*
X113166224Y-89437511D01*
X113170037Y-89438147D01*
X113243620Y-89452784D01*
X113312067Y-89457269D01*
X113316246Y-89457687D01*
X113387347Y-89467250D01*
X113462302Y-89467250D01*
X113466349Y-89467382D01*
X113498372Y-89469481D01*
X113537994Y-89472079D01*
X113538000Y-89472079D01*
X113538004Y-89472079D01*
X113547771Y-89471438D01*
X113609141Y-89467416D01*
X113611032Y-89467323D01*
X113613218Y-89467250D01*
X113613244Y-89467250D01*
X113686670Y-89462334D01*
X113686845Y-89462373D01*
X113686842Y-89462324D01*
X113779347Y-89456259D01*
X113832380Y-89452784D01*
X113832411Y-89452777D01*
X113833522Y-89452632D01*
X113837478Y-89452239D01*
X113838634Y-89452162D01*
X113981658Y-89423091D01*
X114121722Y-89395231D01*
X114122442Y-89394986D01*
X114130018Y-89392935D01*
X114133903Y-89392146D01*
X114268821Y-89345297D01*
X114401077Y-89300402D01*
X114404687Y-89298621D01*
X114411754Y-89295664D01*
X114418537Y-89293310D01*
X114543220Y-89230304D01*
X114665665Y-89169922D01*
X114671700Y-89165888D01*
X114678164Y-89162114D01*
X114687459Y-89157418D01*
X114800040Y-89080135D01*
X114910957Y-89006023D01*
X114918840Y-88999108D01*
X114924622Y-88994613D01*
X114935869Y-88986894D01*
X115034824Y-88897393D01*
X115132758Y-88811508D01*
X115141799Y-88801196D01*
X115146823Y-88796095D01*
X115159333Y-88784782D01*
X115243443Y-88685295D01*
X115327273Y-88589707D01*
X115336687Y-88575616D01*
X115340895Y-88570029D01*
X115353863Y-88554691D01*
X115353865Y-88554689D01*
X115421941Y-88448048D01*
X115422592Y-88447051D01*
X115491172Y-88344415D01*
X115500098Y-88326312D01*
X115503441Y-88320381D01*
X115515993Y-88300720D01*
X115567920Y-88188817D01*
X115568527Y-88187552D01*
X115621649Y-88079834D01*
X115621652Y-88079827D01*
X115621652Y-88079826D01*
X115629179Y-88057649D01*
X115631641Y-88051502D01*
X115642823Y-88027408D01*
X115678417Y-87912659D01*
X115678858Y-87911301D01*
X115716481Y-87800472D01*
X115721677Y-87774347D01*
X115723271Y-87768066D01*
X115732093Y-87739629D01*
X115751534Y-87624373D01*
X115751847Y-87622671D01*
X115774034Y-87511130D01*
X115775986Y-87481326D01*
X115776714Y-87475092D01*
X115782209Y-87442520D01*
X115786006Y-87328919D01*
X115786104Y-87326968D01*
X115793329Y-87216755D01*
X115793329Y-87216751D01*
X115793329Y-87216750D01*
X115791162Y-87183705D01*
X115791065Y-87177599D01*
X115792277Y-87141381D01*
X115781228Y-87031558D01*
X115781050Y-87029411D01*
X115774035Y-86922382D01*
X115774034Y-86922373D01*
X115774034Y-86922370D01*
X115766944Y-86886727D01*
X115766068Y-86880857D01*
X115762118Y-86841591D01*
X115762118Y-86841588D01*
X115737265Y-86737305D01*
X115736777Y-86735069D01*
X115716481Y-86633028D01*
X115703764Y-86595566D01*
X115702169Y-86590033D01*
X115692269Y-86548489D01*
X115654899Y-86451459D01*
X115654057Y-86449135D01*
X115639447Y-86406095D01*
X115621652Y-86353673D01*
X115602732Y-86315306D01*
X115600485Y-86310179D01*
X115583977Y-86267316D01*
X115535555Y-86178957D01*
X115534334Y-86176612D01*
X115501604Y-86110240D01*
X115491175Y-86089091D01*
X115491172Y-86089086D01*
X115465612Y-86050833D01*
X115462798Y-86046194D01*
X115439175Y-86003085D01*
X115381312Y-85924552D01*
X115379706Y-85922264D01*
X115327273Y-85843793D01*
X115294817Y-85806783D01*
X115291516Y-85802680D01*
X115260450Y-85760518D01*
X115260446Y-85760512D01*
X115240801Y-85740199D01*
X115194884Y-85692720D01*
X115192838Y-85690499D01*
X115132760Y-85621994D01*
X115093322Y-85587406D01*
X115089635Y-85583894D01*
X115050981Y-85543926D01*
X114979514Y-85487490D01*
X114977059Y-85485446D01*
X114910960Y-85427479D01*
X114864656Y-85396538D01*
X114860677Y-85393644D01*
X114814517Y-85357193D01*
X114799677Y-85348403D01*
X114738918Y-85312416D01*
X114736089Y-85310634D01*
X114665666Y-85263578D01*
X114612821Y-85237517D01*
X114608668Y-85235268D01*
X114555270Y-85203641D01*
X114555266Y-85203639D01*
X114555262Y-85203637D01*
X114525641Y-85191077D01*
X114477346Y-85170597D01*
X114474157Y-85169136D01*
X114401075Y-85133097D01*
X114342243Y-85113125D01*
X114337969Y-85111496D01*
X114299174Y-85095047D01*
X114277872Y-85086014D01*
X114277868Y-85086013D01*
X114277866Y-85086012D01*
X114199365Y-85064507D01*
X114195815Y-85063420D01*
X114121734Y-85038272D01*
X114121723Y-85038269D01*
X114121722Y-85038269D01*
X114057608Y-85025515D01*
X114053333Y-85024506D01*
X113987281Y-85006412D01*
X113987265Y-85006408D01*
X113909792Y-84995989D01*
X113905962Y-84995351D01*
X113859006Y-84986012D01*
X113832380Y-84980716D01*
X113832377Y-84980715D01*
X113832374Y-84980715D01*
X113763959Y-84976231D01*
X113759750Y-84975811D01*
X113725282Y-84971176D01*
X113688653Y-84966250D01*
X113688650Y-84966250D01*
X113613698Y-84966250D01*
X113609650Y-84966117D01*
X113577627Y-84964018D01*
X113538006Y-84961421D01*
X113538002Y-84961421D01*
X113538000Y-84961421D01*
X113508972Y-84963323D01*
X113466971Y-84966076D01*
X113464997Y-84966174D01*
X113462764Y-84966248D01*
X113401977Y-84970317D01*
X113389157Y-84971176D01*
X113345461Y-84974040D01*
X113243620Y-84980715D01*
X113242420Y-84980873D01*
X113238506Y-84981261D01*
X113237375Y-84981337D01*
X113237372Y-84981337D01*
X113237366Y-84981338D01*
X113123446Y-85004492D01*
X113094399Y-85010396D01*
X112954277Y-85038268D01*
X112954270Y-85038270D01*
X112953508Y-85038529D01*
X112945943Y-85040572D01*
X112942095Y-85041353D01*
X112807244Y-85088178D01*
X112674921Y-85133098D01*
X112671320Y-85134874D01*
X112664241Y-85137836D01*
X112657461Y-85140190D01*
X112657457Y-85140192D01*
X112532703Y-85203232D01*
X112410337Y-85263577D01*
X112410328Y-85263582D01*
X112404301Y-85267608D01*
X112397828Y-85271387D01*
X112388544Y-85276079D01*
X112275944Y-85353374D01*
X112165040Y-85427479D01*
X112161307Y-85430752D01*
X112157156Y-85434392D01*
X112151373Y-85438888D01*
X112140132Y-85446604D01*
X112041178Y-85536102D01*
X111943241Y-85621992D01*
X111934196Y-85632305D01*
X111929175Y-85637403D01*
X111916667Y-85648717D01*
X111916660Y-85648724D01*
X111832575Y-85748181D01*
X111748726Y-85843793D01*
X111739308Y-85857886D01*
X111735106Y-85863466D01*
X111722141Y-85878802D01*
X111722140Y-85878803D01*
X111654072Y-85985427D01*
X111653365Y-85986509D01*
X111584828Y-86089086D01*
X111575905Y-86107177D01*
X111572560Y-86113112D01*
X111562198Y-86129347D01*
X111560007Y-86132780D01*
X111542207Y-86171136D01*
X111508103Y-86244627D01*
X111507470Y-86245950D01*
X111454347Y-86353674D01*
X111454345Y-86353680D01*
X111446822Y-86375839D01*
X111444353Y-86382007D01*
X111433176Y-86406094D01*
X111433176Y-86406095D01*
X111397610Y-86520748D01*
X111397103Y-86522308D01*
X111359522Y-86633016D01*
X111359516Y-86633038D01*
X111354320Y-86659160D01*
X111352728Y-86665433D01*
X111343905Y-86693875D01*
X111324472Y-86809077D01*
X111324145Y-86810857D01*
X111301965Y-86922373D01*
X111301964Y-86922378D01*
X111300012Y-86952166D01*
X111299281Y-86958423D01*
X111293791Y-86990980D01*
X111289994Y-87104521D01*
X111289895Y-87106502D01*
X111282671Y-87216750D01*
X99163329Y-87216750D01*
X99161162Y-87183705D01*
X99161065Y-87177599D01*
X99162277Y-87141381D01*
X99151228Y-87031558D01*
X99151050Y-87029411D01*
X99144035Y-86922382D01*
X99144034Y-86922373D01*
X99144034Y-86922370D01*
X99136944Y-86886727D01*
X99136068Y-86880857D01*
X99132118Y-86841591D01*
X99132118Y-86841588D01*
X99107265Y-86737305D01*
X99106777Y-86735069D01*
X99086481Y-86633028D01*
X99073764Y-86595566D01*
X99072169Y-86590033D01*
X99062269Y-86548489D01*
X99024899Y-86451459D01*
X99024057Y-86449135D01*
X99009447Y-86406095D01*
X98991652Y-86353673D01*
X98972732Y-86315306D01*
X98970485Y-86310179D01*
X98953977Y-86267316D01*
X98905555Y-86178957D01*
X98904334Y-86176612D01*
X98871604Y-86110240D01*
X98861175Y-86089091D01*
X98861172Y-86089086D01*
X98835612Y-86050833D01*
X98832798Y-86046194D01*
X98809175Y-86003085D01*
X98751312Y-85924552D01*
X98749706Y-85922264D01*
X98697273Y-85843793D01*
X98664817Y-85806783D01*
X98661516Y-85802680D01*
X98630450Y-85760518D01*
X98630446Y-85760512D01*
X98610801Y-85740199D01*
X98564884Y-85692720D01*
X98562838Y-85690499D01*
X98502760Y-85621994D01*
X98463322Y-85587406D01*
X98459635Y-85583894D01*
X98420981Y-85543926D01*
X98349514Y-85487490D01*
X98347059Y-85485446D01*
X98280960Y-85427479D01*
X98234656Y-85396538D01*
X98230677Y-85393644D01*
X98184517Y-85357193D01*
X98169677Y-85348403D01*
X98108918Y-85312416D01*
X98106089Y-85310634D01*
X98035666Y-85263578D01*
X97982821Y-85237517D01*
X97978668Y-85235268D01*
X97925270Y-85203641D01*
X97925266Y-85203639D01*
X97925262Y-85203637D01*
X97895641Y-85191077D01*
X97847346Y-85170597D01*
X97844157Y-85169136D01*
X97771075Y-85133097D01*
X97712243Y-85113125D01*
X97707969Y-85111496D01*
X97669174Y-85095047D01*
X97647872Y-85086014D01*
X97647868Y-85086013D01*
X97647866Y-85086012D01*
X97569365Y-85064507D01*
X97565815Y-85063420D01*
X97491734Y-85038272D01*
X97491723Y-85038269D01*
X97491722Y-85038269D01*
X97427608Y-85025515D01*
X97423333Y-85024506D01*
X97357281Y-85006412D01*
X97357265Y-85006408D01*
X97279792Y-84995989D01*
X97275962Y-84995351D01*
X97229006Y-84986012D01*
X97202380Y-84980716D01*
X97202377Y-84980715D01*
X97202374Y-84980715D01*
X97133959Y-84976231D01*
X97129750Y-84975811D01*
X97095282Y-84971176D01*
X97058653Y-84966250D01*
X97058650Y-84966250D01*
X96983698Y-84966250D01*
X96979650Y-84966117D01*
X96947627Y-84964018D01*
X96908006Y-84961421D01*
X96908002Y-84961421D01*
X96908000Y-84961421D01*
X96878972Y-84963323D01*
X96836971Y-84966076D01*
X96834997Y-84966174D01*
X96832764Y-84966248D01*
X96771977Y-84970317D01*
X96759157Y-84971176D01*
X96715461Y-84974040D01*
X96613620Y-84980715D01*
X96612420Y-84980873D01*
X96608506Y-84981261D01*
X96607375Y-84981337D01*
X96607372Y-84981337D01*
X96607366Y-84981338D01*
X96493446Y-85004492D01*
X96464399Y-85010396D01*
X96324277Y-85038268D01*
X96324270Y-85038270D01*
X96323508Y-85038529D01*
X96315943Y-85040572D01*
X96312095Y-85041353D01*
X96177244Y-85088178D01*
X96044921Y-85133098D01*
X96041320Y-85134874D01*
X96034241Y-85137836D01*
X96027461Y-85140190D01*
X96027457Y-85140192D01*
X95902703Y-85203232D01*
X95780337Y-85263577D01*
X95780328Y-85263582D01*
X95774301Y-85267608D01*
X95767828Y-85271387D01*
X95758544Y-85276079D01*
X95645944Y-85353374D01*
X95535040Y-85427479D01*
X95531307Y-85430752D01*
X95527156Y-85434392D01*
X95521373Y-85438888D01*
X95510132Y-85446604D01*
X95411178Y-85536102D01*
X95313241Y-85621992D01*
X95304196Y-85632305D01*
X95299175Y-85637403D01*
X95286667Y-85648717D01*
X95286660Y-85648724D01*
X95202575Y-85748181D01*
X95118726Y-85843793D01*
X95109308Y-85857886D01*
X95105106Y-85863466D01*
X95092141Y-85878802D01*
X95092140Y-85878803D01*
X95024072Y-85985427D01*
X95023365Y-85986509D01*
X94954828Y-86089086D01*
X94945905Y-86107177D01*
X94942560Y-86113112D01*
X94932198Y-86129347D01*
X94930007Y-86132780D01*
X94912207Y-86171136D01*
X94878103Y-86244627D01*
X94877470Y-86245950D01*
X94824347Y-86353674D01*
X94824345Y-86353680D01*
X94816822Y-86375839D01*
X94814353Y-86382007D01*
X94803176Y-86406094D01*
X94803176Y-86406095D01*
X94767610Y-86520748D01*
X94767103Y-86522308D01*
X94729522Y-86633016D01*
X94729516Y-86633038D01*
X94724320Y-86659160D01*
X94722728Y-86665433D01*
X94713905Y-86693875D01*
X94694472Y-86809077D01*
X94694145Y-86810857D01*
X94671965Y-86922373D01*
X94671964Y-86922378D01*
X94670012Y-86952166D01*
X94669281Y-86958423D01*
X94663791Y-86990980D01*
X94659994Y-87104521D01*
X94659895Y-87106502D01*
X94652671Y-87216750D01*
X89916000Y-87216750D01*
X89916000Y-82674000D01*
X89935685Y-82606961D01*
X89988489Y-82561206D01*
X90040000Y-82550000D01*
X120272000Y-82550000D01*
X120339039Y-82569685D01*
G37*
%TD.AperFunction*%
%TD*%
M02*
