%TF.GenerationSoftware,KiCad,Pcbnew,7.0.5*%
%TF.CreationDate,2023-07-10T11:24:46-06:00*%
%TF.ProjectId,S_Tele,535f5465-6c65-42e6-9b69-6361645f7063,rev?*%
%TF.SameCoordinates,Original*%
%TF.FileFunction,Soldermask,Bot*%
%TF.FilePolarity,Negative*%
%FSLAX46Y46*%
G04 Gerber Fmt 4.6, Leading zero omitted, Abs format (unit mm)*
G04 Created by KiCad (PCBNEW 7.0.5) date 2023-07-10 11:24:46*
%MOMM*%
%LPD*%
G01*
G04 APERTURE LIST*
%ADD10R,2.420000X5.080000*%
%ADD11C,5.500000*%
%ADD12R,0.850000X0.850000*%
%ADD13O,3.500000X3.500000*%
%ADD14R,1.905000X2.000000*%
%ADD15O,1.905000X2.000000*%
%ADD16R,1.600000X1.600000*%
%ADD17O,1.600000X1.600000*%
%ADD18C,1.440000*%
%ADD19R,2.600000X2.600000*%
%ADD20C,2.600000*%
G04 APERTURE END LIST*
D10*
%TO.C,J5*%
X168553200Y-76615850D03*
X159793200Y-76615850D03*
%TD*%
D11*
%TO.C,REF\u002A\u002A*%
X93726000Y-78740000D03*
%TD*%
D10*
%TO.C,J3*%
X130113000Y-116929250D03*
X138873000Y-116929250D03*
%TD*%
%TO.C,J4*%
X138746000Y-76523500D03*
X129986000Y-76523500D03*
%TD*%
D12*
%TO.C,J2*%
X124460000Y-86010750D03*
%TD*%
D11*
%TO.C,REF\u002A\u002A*%
X191516000Y-78740000D03*
%TD*%
D13*
%TO.C,U1*%
X96908000Y-87216750D03*
D14*
X94368000Y-103876750D03*
D15*
X96908000Y-103876750D03*
X99448000Y-103876750D03*
%TD*%
D11*
%TO.C,REF\u002A\u002A*%
X93726000Y-114300000D03*
%TD*%
%TO.C,REF\u002A\u002A*%
X191516000Y-114300000D03*
%TD*%
D13*
%TO.C,U2*%
X113538000Y-87216750D03*
D14*
X110998000Y-103876750D03*
D15*
X113538000Y-103876750D03*
X116078000Y-103876750D03*
%TD*%
D10*
%TO.C,J6*%
X159793400Y-116929400D03*
X168553400Y-116929400D03*
%TD*%
D16*
%TO.C,U4*%
X167979200Y-102053350D03*
D17*
X170519200Y-102053350D03*
X173059200Y-102053350D03*
X175599200Y-102053350D03*
X175599200Y-94433350D03*
X173059200Y-94433350D03*
X170519200Y-94433350D03*
X167979200Y-94433350D03*
%TD*%
D18*
%TO.C,R_pot2*%
X185749200Y-91585850D03*
X185749200Y-94125850D03*
X185749200Y-96665850D03*
%TD*%
D10*
%TO.C,J8*%
X175668400Y-117004400D03*
X184428400Y-117004400D03*
%TD*%
D19*
%TO.C,J1*%
X82423000Y-78898750D03*
D20*
X82423000Y-83978750D03*
X82423000Y-89058750D03*
X82423000Y-94138750D03*
X82423000Y-99218750D03*
X82423000Y-104298750D03*
X82423000Y-109378750D03*
X82423000Y-114458750D03*
%TD*%
D10*
%TO.C,J7*%
X184428200Y-76615850D03*
X175668200Y-76615850D03*
%TD*%
D18*
%TO.C,R_pot1*%
X158444200Y-91585850D03*
X158444200Y-94125850D03*
X158444200Y-96665850D03*
%TD*%
M02*
