%TF.GenerationSoftware,KiCad,Pcbnew,7.0.5*%
%TF.CreationDate,2023-07-10T11:24:46-06:00*%
%TF.ProjectId,S_Tele,535f5465-6c65-42e6-9b69-6361645f7063,rev?*%
%TF.SameCoordinates,Original*%
%TF.FileFunction,Paste,Top*%
%TF.FilePolarity,Positive*%
%FSLAX46Y46*%
G04 Gerber Fmt 4.6, Leading zero omitted, Abs format (unit mm)*
G04 Created by KiCad (PCBNEW 7.0.5) date 2023-07-10 11:24:46*
%MOMM*%
%LPD*%
G01*
G04 APERTURE LIST*
G04 Aperture macros list*
%AMRoundRect*
0 Rectangle with rounded corners*
0 $1 Rounding radius*
0 $2 $3 $4 $5 $6 $7 $8 $9 X,Y pos of 4 corners*
0 Add a 4 corners polygon primitive as box body*
4,1,4,$2,$3,$4,$5,$6,$7,$8,$9,$2,$3,0*
0 Add four circle primitives for the rounded corners*
1,1,$1+$1,$2,$3*
1,1,$1+$1,$4,$5*
1,1,$1+$1,$6,$7*
1,1,$1+$1,$8,$9*
0 Add four rect primitives between the rounded corners*
20,1,$1+$1,$2,$3,$4,$5,0*
20,1,$1+$1,$4,$5,$6,$7,0*
20,1,$1+$1,$6,$7,$8,$9,0*
20,1,$1+$1,$8,$9,$2,$3,0*%
G04 Aperture macros list end*
%ADD10RoundRect,0.250000X-0.262500X-0.450000X0.262500X-0.450000X0.262500X0.450000X-0.262500X0.450000X0*%
%ADD11RoundRect,0.250000X-0.312500X-0.275000X0.312500X-0.275000X0.312500X0.275000X-0.312500X0.275000X0*%
%ADD12RoundRect,0.250000X0.262500X0.450000X-0.262500X0.450000X-0.262500X-0.450000X0.262500X-0.450000X0*%
%ADD13RoundRect,0.250000X0.625000X-0.375000X0.625000X0.375000X-0.625000X0.375000X-0.625000X-0.375000X0*%
%ADD14R,2.290000X5.080000*%
%ADD15R,2.420000X5.080000*%
%ADD16RoundRect,0.250000X0.312500X0.625000X-0.312500X0.625000X-0.312500X-0.625000X0.312500X-0.625000X0*%
%ADD17RoundRect,0.250000X-0.450000X0.262500X-0.450000X-0.262500X0.450000X-0.262500X0.450000X0.262500X0*%
%ADD18R,0.899999X0.300000*%
%ADD19R,0.300000X0.899999*%
%ADD20R,2.350000X2.350000*%
%ADD21RoundRect,0.250000X0.325000X0.650000X-0.325000X0.650000X-0.325000X-0.650000X0.325000X-0.650000X0*%
%ADD22RoundRect,0.250000X0.312500X0.275000X-0.312500X0.275000X-0.312500X-0.275000X0.312500X-0.275000X0*%
%ADD23RoundRect,0.250000X0.450000X-0.262500X0.450000X0.262500X-0.450000X0.262500X-0.450000X-0.262500X0*%
%ADD24RoundRect,0.250000X0.475000X-0.250000X0.475000X0.250000X-0.475000X0.250000X-0.475000X-0.250000X0*%
%ADD25RoundRect,0.250000X-0.250000X-0.475000X0.250000X-0.475000X0.250000X0.475000X-0.250000X0.475000X0*%
G04 APERTURE END LIST*
D10*
%TO.C,R2*%
X128223000Y-89884250D03*
X130048000Y-89884250D03*
%TD*%
D11*
%TO.C,C4*%
X101855500Y-108362750D03*
X103630500Y-108362750D03*
%TD*%
D12*
%TO.C,R1*%
X135128000Y-86074250D03*
X133303000Y-86074250D03*
%TD*%
D13*
%TO.C,D1*%
X105283000Y-101637750D03*
X105283000Y-98837750D03*
%TD*%
D11*
%TO.C,C1*%
X101855500Y-112807750D03*
X103630500Y-112807750D03*
%TD*%
D12*
%TO.C,R3*%
X134493000Y-109569250D03*
X132668000Y-109569250D03*
%TD*%
D14*
%TO.C,J5*%
X164173200Y-76615850D03*
D15*
X168553200Y-76615850D03*
X159793200Y-76615850D03*
%TD*%
D16*
%TO.C,Rf2*%
X170894200Y-88474350D03*
X167969200Y-88474350D03*
%TD*%
D17*
%TO.C,R10*%
X124968000Y-96234250D03*
X124968000Y-98059250D03*
%TD*%
D10*
%TO.C,R6*%
X133303000Y-89884250D03*
X135128000Y-89884250D03*
%TD*%
D14*
%TO.C,J3*%
X134493000Y-116929250D03*
D15*
X130113000Y-116929250D03*
X138873000Y-116929250D03*
%TD*%
D18*
%TO.C,U3*%
X136688000Y-98474248D03*
X136688000Y-97824250D03*
X136688000Y-97174248D03*
X136688000Y-96524250D03*
D19*
X135763000Y-95599250D03*
X135113002Y-95599250D03*
X134463000Y-95599250D03*
X133813002Y-95599250D03*
D18*
X132888002Y-96524250D03*
X132888002Y-97174248D03*
X132888002Y-97824250D03*
X132888002Y-98474248D03*
D19*
X133813002Y-99399248D03*
X134463000Y-99399248D03*
X135113002Y-99399248D03*
X135763000Y-99399248D03*
D20*
X134788001Y-97499249D03*
%TD*%
D14*
%TO.C,J4*%
X134366000Y-76523500D03*
D15*
X138746000Y-76523500D03*
X129986000Y-76523500D03*
%TD*%
D21*
%TO.C,C12*%
X142953000Y-101314250D03*
X140003000Y-101314250D03*
%TD*%
D22*
%TO.C,C2*%
X108633000Y-108362750D03*
X106858000Y-108362750D03*
%TD*%
D17*
%TO.C,R11*%
X124968000Y-100401750D03*
X124968000Y-102226750D03*
%TD*%
D23*
%TO.C,R9*%
X142748000Y-96154250D03*
X142748000Y-94329250D03*
%TD*%
D24*
%TO.C,C10*%
X134493000Y-105644250D03*
X134493000Y-103744250D03*
%TD*%
D25*
%TO.C,C9*%
X139573000Y-89884250D03*
X141473000Y-89884250D03*
%TD*%
D14*
%TO.C,J6*%
X164173400Y-116929400D03*
D15*
X159793400Y-116929400D03*
X168553400Y-116929400D03*
%TD*%
D12*
%TO.C,R15*%
X130048000Y-86074250D03*
X128223000Y-86074250D03*
%TD*%
D23*
%TO.C,R12*%
X145923000Y-96154250D03*
X145923000Y-94329250D03*
%TD*%
D22*
%TO.C,C3*%
X108633000Y-112807750D03*
X106858000Y-112807750D03*
%TD*%
D14*
%TO.C,J8*%
X180048400Y-117004400D03*
D15*
X175668400Y-117004400D03*
X184428400Y-117004400D03*
%TD*%
D16*
%TO.C,Rf1*%
X170904200Y-108032350D03*
X167979200Y-108032350D03*
%TD*%
D14*
%TO.C,J7*%
X180048200Y-76615850D03*
D15*
X184428200Y-76615850D03*
X175668200Y-76615850D03*
%TD*%
M02*
